%TF.GenerationSoftware,KiCad,Pcbnew,7.0.9*%
%TF.CreationDate,2023-11-18T02:34:39+02:00*%
%TF.ProjectId,BMS_Buck-Boost,424d535f-4275-4636-9b2d-426f6f73742e,rev?*%
%TF.SameCoordinates,Original*%
%TF.FileFunction,Soldermask,Top*%
%TF.FilePolarity,Negative*%
%FSLAX46Y46*%
G04 Gerber Fmt 4.6, Leading zero omitted, Abs format (unit mm)*
G04 Created by KiCad (PCBNEW 7.0.9) date 2023-11-18 02:34:39*
%MOMM*%
%LPD*%
G01*
G04 APERTURE LIST*
G04 Aperture macros list*
%AMRoundRect*
0 Rectangle with rounded corners*
0 $1 Rounding radius*
0 $2 $3 $4 $5 $6 $7 $8 $9 X,Y pos of 4 corners*
0 Add a 4 corners polygon primitive as box body*
4,1,4,$2,$3,$4,$5,$6,$7,$8,$9,$2,$3,0*
0 Add four circle primitives for the rounded corners*
1,1,$1+$1,$2,$3*
1,1,$1+$1,$4,$5*
1,1,$1+$1,$6,$7*
1,1,$1+$1,$8,$9*
0 Add four rect primitives between the rounded corners*
20,1,$1+$1,$2,$3,$4,$5,0*
20,1,$1+$1,$4,$5,$6,$7,0*
20,1,$1+$1,$6,$7,$8,$9,0*
20,1,$1+$1,$8,$9,$2,$3,0*%
G04 Aperture macros list end*
%ADD10C,0.010000*%
%ADD11RoundRect,0.200000X-0.200000X-0.275000X0.200000X-0.275000X0.200000X0.275000X-0.200000X0.275000X0*%
%ADD12RoundRect,0.200000X0.200000X0.275000X-0.200000X0.275000X-0.200000X-0.275000X0.200000X-0.275000X0*%
%ADD13RoundRect,0.250000X-0.250000X-0.475000X0.250000X-0.475000X0.250000X0.475000X-0.250000X0.475000X0*%
%ADD14RoundRect,0.122000X0.760000X0.180000X-0.760000X0.180000X-0.760000X-0.180000X0.760000X-0.180000X0*%
%ADD15RoundRect,0.243750X-0.456250X0.243750X-0.456250X-0.243750X0.456250X-0.243750X0.456250X0.243750X0*%
%ADD16RoundRect,0.250000X0.925000X-0.412500X0.925000X0.412500X-0.925000X0.412500X-0.925000X-0.412500X0*%
%ADD17RoundRect,0.250000X0.425000X-0.450000X0.425000X0.450000X-0.425000X0.450000X-0.425000X-0.450000X0*%
%ADD18RoundRect,0.175000X0.175000X0.425000X-0.175000X0.425000X-0.175000X-0.425000X0.175000X-0.425000X0*%
%ADD19RoundRect,0.190000X-0.190000X-0.410000X0.190000X-0.410000X0.190000X0.410000X-0.190000X0.410000X0*%
%ADD20RoundRect,0.200000X-0.200000X-0.400000X0.200000X-0.400000X0.200000X0.400000X-0.200000X0.400000X0*%
%ADD21RoundRect,0.175000X-0.175000X-0.425000X0.175000X-0.425000X0.175000X0.425000X-0.175000X0.425000X0*%
%ADD22RoundRect,0.190000X0.190000X0.410000X-0.190000X0.410000X-0.190000X-0.410000X0.190000X-0.410000X0*%
%ADD23RoundRect,0.200000X0.200000X0.400000X-0.200000X0.400000X-0.200000X-0.400000X0.200000X-0.400000X0*%
%ADD24O,1.100000X1.700000*%
%ADD25RoundRect,0.250000X0.475000X-0.250000X0.475000X0.250000X-0.475000X0.250000X-0.475000X-0.250000X0*%
%ADD26C,1.440000*%
%ADD27C,3.800000*%
%ADD28R,1.700000X1.700000*%
%ADD29RoundRect,0.150000X0.150000X-0.512500X0.150000X0.512500X-0.150000X0.512500X-0.150000X-0.512500X0*%
%ADD30RoundRect,0.125000X-0.125000X-0.125000X0.125000X-0.125000X0.125000X0.125000X-0.125000X0.125000X0*%
%ADD31RoundRect,0.250000X-0.425000X0.450000X-0.425000X-0.450000X0.425000X-0.450000X0.425000X0.450000X0*%
%ADD32RoundRect,0.200000X-0.275000X0.200000X-0.275000X-0.200000X0.275000X-0.200000X0.275000X0.200000X0*%
%ADD33RoundRect,0.150000X-0.150000X0.587500X-0.150000X-0.587500X0.150000X-0.587500X0.150000X0.587500X0*%
%ADD34R,2.350000X3.500000*%
%ADD35C,0.504000*%
%ADD36RoundRect,0.102000X-0.600000X0.275000X-0.600000X-0.275000X0.600000X-0.275000X0.600000X0.275000X0*%
%ADD37RoundRect,0.150000X-0.150000X-0.200000X0.150000X-0.200000X0.150000X0.200000X-0.150000X0.200000X0*%
%ADD38RoundRect,0.250000X0.250000X0.475000X-0.250000X0.475000X-0.250000X-0.475000X0.250000X-0.475000X0*%
%ADD39RoundRect,0.125000X0.125000X0.125000X-0.125000X0.125000X-0.125000X-0.125000X0.125000X-0.125000X0*%
G04 APERTURE END LIST*
%TO.C,U3*%
D10*
X173900000Y-89985000D02*
X174020000Y-89985000D01*
X174020000Y-89210000D01*
X174360000Y-89210000D01*
X174360000Y-89985000D01*
X174480000Y-89985000D01*
X174480000Y-89210000D01*
X174820000Y-89210000D01*
X174820000Y-89985000D01*
X174940000Y-89985000D01*
X174940000Y-89210000D01*
X175280000Y-89210000D01*
X175280000Y-93750000D01*
X174940000Y-93750000D01*
X174940000Y-92975000D01*
X174820000Y-92975000D01*
X174820000Y-93750000D01*
X174480000Y-93750000D01*
X174480000Y-92975000D01*
X174360000Y-92975000D01*
X174360000Y-93750000D01*
X174020000Y-93750000D01*
X174020000Y-92975000D01*
X173900000Y-92975000D01*
X173900000Y-93750000D01*
X173560000Y-93750000D01*
X173560000Y-89210000D01*
X173900000Y-89210000D01*
X173900000Y-89985000D01*
G36*
X173900000Y-89985000D02*
G01*
X174020000Y-89985000D01*
X174020000Y-89210000D01*
X174360000Y-89210000D01*
X174360000Y-89985000D01*
X174480000Y-89985000D01*
X174480000Y-89210000D01*
X174820000Y-89210000D01*
X174820000Y-89985000D01*
X174940000Y-89985000D01*
X174940000Y-89210000D01*
X175280000Y-89210000D01*
X175280000Y-93750000D01*
X174940000Y-93750000D01*
X174940000Y-92975000D01*
X174820000Y-92975000D01*
X174820000Y-93750000D01*
X174480000Y-93750000D01*
X174480000Y-92975000D01*
X174360000Y-92975000D01*
X174360000Y-93750000D01*
X174020000Y-93750000D01*
X174020000Y-92975000D01*
X173900000Y-92975000D01*
X173900000Y-93750000D01*
X173560000Y-93750000D01*
X173560000Y-89210000D01*
X173900000Y-89210000D01*
X173900000Y-89985000D01*
G37*
X176020000Y-92791000D02*
X176030000Y-92792000D01*
X176040000Y-92794000D01*
X176049000Y-92796000D01*
X176059000Y-92799000D01*
X176068000Y-92803000D01*
X176077000Y-92806000D01*
X176086000Y-92811000D01*
X176095000Y-92815000D01*
X176103000Y-92821000D01*
X176112000Y-92826000D01*
X176120000Y-92832000D01*
X176127000Y-92839000D01*
X176134000Y-92846000D01*
X176141000Y-92853000D01*
X176148000Y-92860000D01*
X176154000Y-92868000D01*
X176159000Y-92877000D01*
X176165000Y-92885000D01*
X176169000Y-92894000D01*
X176174000Y-92903000D01*
X176177000Y-92912000D01*
X176181000Y-92921000D01*
X176184000Y-92931000D01*
X176186000Y-92940000D01*
X176188000Y-92950000D01*
X176189000Y-92960000D01*
X176190000Y-92970000D01*
X176190000Y-92980000D01*
X176190000Y-92990000D01*
X176189000Y-93000000D01*
X176188000Y-93010000D01*
X176186000Y-93020000D01*
X176184000Y-93029000D01*
X176181000Y-93039000D01*
X176177000Y-93048000D01*
X176174000Y-93057000D01*
X176169000Y-93066000D01*
X176165000Y-93075000D01*
X176159000Y-93083000D01*
X176154000Y-93092000D01*
X176148000Y-93100000D01*
X176141000Y-93107000D01*
X176134000Y-93114000D01*
X176127000Y-93121000D01*
X176120000Y-93128000D01*
X176112000Y-93134000D01*
X176103000Y-93139000D01*
X176095000Y-93145000D01*
X176086000Y-93149000D01*
X176077000Y-93154000D01*
X176068000Y-93157000D01*
X176059000Y-93161000D01*
X176049000Y-93164000D01*
X176040000Y-93166000D01*
X176030000Y-93168000D01*
X176020000Y-93169000D01*
X176010000Y-93170000D01*
X176000000Y-93170000D01*
X175640000Y-93170000D01*
X175630000Y-93170000D01*
X175620000Y-93169000D01*
X175610000Y-93168000D01*
X175600000Y-93166000D01*
X175591000Y-93164000D01*
X175581000Y-93161000D01*
X175572000Y-93157000D01*
X175563000Y-93154000D01*
X175554000Y-93149000D01*
X175545000Y-93145000D01*
X175537000Y-93139000D01*
X175528000Y-93134000D01*
X175520000Y-93128000D01*
X175513000Y-93121000D01*
X175506000Y-93114000D01*
X175499000Y-93107000D01*
X175492000Y-93100000D01*
X175486000Y-93092000D01*
X175481000Y-93083000D01*
X175475000Y-93075000D01*
X175471000Y-93066000D01*
X175466000Y-93057000D01*
X175463000Y-93048000D01*
X175459000Y-93039000D01*
X175456000Y-93029000D01*
X175454000Y-93020000D01*
X175452000Y-93010000D01*
X175451000Y-93000000D01*
X175450000Y-92990000D01*
X175450000Y-92980000D01*
X175450000Y-92970000D01*
X175451000Y-92960000D01*
X175452000Y-92950000D01*
X175454000Y-92940000D01*
X175456000Y-92931000D01*
X175459000Y-92921000D01*
X175463000Y-92912000D01*
X175466000Y-92903000D01*
X175471000Y-92894000D01*
X175475000Y-92885000D01*
X175481000Y-92877000D01*
X175486000Y-92868000D01*
X175492000Y-92860000D01*
X175499000Y-92853000D01*
X175506000Y-92846000D01*
X175513000Y-92839000D01*
X175520000Y-92832000D01*
X175528000Y-92826000D01*
X175537000Y-92821000D01*
X175545000Y-92815000D01*
X175554000Y-92811000D01*
X175563000Y-92806000D01*
X175572000Y-92803000D01*
X175581000Y-92799000D01*
X175591000Y-92796000D01*
X175600000Y-92794000D01*
X175610000Y-92792000D01*
X175620000Y-92791000D01*
X175630000Y-92790000D01*
X175640000Y-92790000D01*
X176000000Y-92790000D01*
X176010000Y-92790000D01*
X176020000Y-92791000D01*
G36*
X176020000Y-92791000D02*
G01*
X176030000Y-92792000D01*
X176040000Y-92794000D01*
X176049000Y-92796000D01*
X176059000Y-92799000D01*
X176068000Y-92803000D01*
X176077000Y-92806000D01*
X176086000Y-92811000D01*
X176095000Y-92815000D01*
X176103000Y-92821000D01*
X176112000Y-92826000D01*
X176120000Y-92832000D01*
X176127000Y-92839000D01*
X176134000Y-92846000D01*
X176141000Y-92853000D01*
X176148000Y-92860000D01*
X176154000Y-92868000D01*
X176159000Y-92877000D01*
X176165000Y-92885000D01*
X176169000Y-92894000D01*
X176174000Y-92903000D01*
X176177000Y-92912000D01*
X176181000Y-92921000D01*
X176184000Y-92931000D01*
X176186000Y-92940000D01*
X176188000Y-92950000D01*
X176189000Y-92960000D01*
X176190000Y-92970000D01*
X176190000Y-92980000D01*
X176190000Y-92990000D01*
X176189000Y-93000000D01*
X176188000Y-93010000D01*
X176186000Y-93020000D01*
X176184000Y-93029000D01*
X176181000Y-93039000D01*
X176177000Y-93048000D01*
X176174000Y-93057000D01*
X176169000Y-93066000D01*
X176165000Y-93075000D01*
X176159000Y-93083000D01*
X176154000Y-93092000D01*
X176148000Y-93100000D01*
X176141000Y-93107000D01*
X176134000Y-93114000D01*
X176127000Y-93121000D01*
X176120000Y-93128000D01*
X176112000Y-93134000D01*
X176103000Y-93139000D01*
X176095000Y-93145000D01*
X176086000Y-93149000D01*
X176077000Y-93154000D01*
X176068000Y-93157000D01*
X176059000Y-93161000D01*
X176049000Y-93164000D01*
X176040000Y-93166000D01*
X176030000Y-93168000D01*
X176020000Y-93169000D01*
X176010000Y-93170000D01*
X176000000Y-93170000D01*
X175640000Y-93170000D01*
X175630000Y-93170000D01*
X175620000Y-93169000D01*
X175610000Y-93168000D01*
X175600000Y-93166000D01*
X175591000Y-93164000D01*
X175581000Y-93161000D01*
X175572000Y-93157000D01*
X175563000Y-93154000D01*
X175554000Y-93149000D01*
X175545000Y-93145000D01*
X175537000Y-93139000D01*
X175528000Y-93134000D01*
X175520000Y-93128000D01*
X175513000Y-93121000D01*
X175506000Y-93114000D01*
X175499000Y-93107000D01*
X175492000Y-93100000D01*
X175486000Y-93092000D01*
X175481000Y-93083000D01*
X175475000Y-93075000D01*
X175471000Y-93066000D01*
X175466000Y-93057000D01*
X175463000Y-93048000D01*
X175459000Y-93039000D01*
X175456000Y-93029000D01*
X175454000Y-93020000D01*
X175452000Y-93010000D01*
X175451000Y-93000000D01*
X175450000Y-92990000D01*
X175450000Y-92980000D01*
X175450000Y-92970000D01*
X175451000Y-92960000D01*
X175452000Y-92950000D01*
X175454000Y-92940000D01*
X175456000Y-92931000D01*
X175459000Y-92921000D01*
X175463000Y-92912000D01*
X175466000Y-92903000D01*
X175471000Y-92894000D01*
X175475000Y-92885000D01*
X175481000Y-92877000D01*
X175486000Y-92868000D01*
X175492000Y-92860000D01*
X175499000Y-92853000D01*
X175506000Y-92846000D01*
X175513000Y-92839000D01*
X175520000Y-92832000D01*
X175528000Y-92826000D01*
X175537000Y-92821000D01*
X175545000Y-92815000D01*
X175554000Y-92811000D01*
X175563000Y-92806000D01*
X175572000Y-92803000D01*
X175581000Y-92799000D01*
X175591000Y-92796000D01*
X175600000Y-92794000D01*
X175610000Y-92792000D01*
X175620000Y-92791000D01*
X175630000Y-92790000D01*
X175640000Y-92790000D01*
X176000000Y-92790000D01*
X176010000Y-92790000D01*
X176020000Y-92791000D01*
G37*
X176020000Y-92291000D02*
X176030000Y-92292000D01*
X176040000Y-92294000D01*
X176049000Y-92296000D01*
X176059000Y-92299000D01*
X176068000Y-92303000D01*
X176077000Y-92306000D01*
X176086000Y-92311000D01*
X176095000Y-92315000D01*
X176103000Y-92321000D01*
X176112000Y-92326000D01*
X176120000Y-92332000D01*
X176127000Y-92339000D01*
X176134000Y-92346000D01*
X176141000Y-92353000D01*
X176148000Y-92360000D01*
X176154000Y-92368000D01*
X176159000Y-92377000D01*
X176165000Y-92385000D01*
X176169000Y-92394000D01*
X176174000Y-92403000D01*
X176177000Y-92412000D01*
X176181000Y-92421000D01*
X176184000Y-92431000D01*
X176186000Y-92440000D01*
X176188000Y-92450000D01*
X176189000Y-92460000D01*
X176190000Y-92470000D01*
X176190000Y-92480000D01*
X176190000Y-92490000D01*
X176189000Y-92500000D01*
X176188000Y-92510000D01*
X176186000Y-92520000D01*
X176184000Y-92529000D01*
X176181000Y-92539000D01*
X176177000Y-92548000D01*
X176174000Y-92557000D01*
X176169000Y-92566000D01*
X176165000Y-92575000D01*
X176159000Y-92583000D01*
X176154000Y-92592000D01*
X176148000Y-92600000D01*
X176141000Y-92607000D01*
X176134000Y-92614000D01*
X176127000Y-92621000D01*
X176120000Y-92628000D01*
X176112000Y-92634000D01*
X176103000Y-92639000D01*
X176095000Y-92645000D01*
X176086000Y-92649000D01*
X176077000Y-92654000D01*
X176068000Y-92657000D01*
X176059000Y-92661000D01*
X176049000Y-92664000D01*
X176040000Y-92666000D01*
X176030000Y-92668000D01*
X176020000Y-92669000D01*
X176010000Y-92670000D01*
X176000000Y-92670000D01*
X175640000Y-92670000D01*
X175630000Y-92670000D01*
X175620000Y-92669000D01*
X175610000Y-92668000D01*
X175600000Y-92666000D01*
X175591000Y-92664000D01*
X175581000Y-92661000D01*
X175572000Y-92657000D01*
X175563000Y-92654000D01*
X175554000Y-92649000D01*
X175545000Y-92645000D01*
X175537000Y-92639000D01*
X175528000Y-92634000D01*
X175520000Y-92628000D01*
X175513000Y-92621000D01*
X175506000Y-92614000D01*
X175499000Y-92607000D01*
X175492000Y-92600000D01*
X175486000Y-92592000D01*
X175481000Y-92583000D01*
X175475000Y-92575000D01*
X175471000Y-92566000D01*
X175466000Y-92557000D01*
X175463000Y-92548000D01*
X175459000Y-92539000D01*
X175456000Y-92529000D01*
X175454000Y-92520000D01*
X175452000Y-92510000D01*
X175451000Y-92500000D01*
X175450000Y-92490000D01*
X175450000Y-92480000D01*
X175450000Y-92470000D01*
X175451000Y-92460000D01*
X175452000Y-92450000D01*
X175454000Y-92440000D01*
X175456000Y-92431000D01*
X175459000Y-92421000D01*
X175463000Y-92412000D01*
X175466000Y-92403000D01*
X175471000Y-92394000D01*
X175475000Y-92385000D01*
X175481000Y-92377000D01*
X175486000Y-92368000D01*
X175492000Y-92360000D01*
X175499000Y-92353000D01*
X175506000Y-92346000D01*
X175513000Y-92339000D01*
X175520000Y-92332000D01*
X175528000Y-92326000D01*
X175537000Y-92321000D01*
X175545000Y-92315000D01*
X175554000Y-92311000D01*
X175563000Y-92306000D01*
X175572000Y-92303000D01*
X175581000Y-92299000D01*
X175591000Y-92296000D01*
X175600000Y-92294000D01*
X175610000Y-92292000D01*
X175620000Y-92291000D01*
X175630000Y-92290000D01*
X175640000Y-92290000D01*
X176000000Y-92290000D01*
X176010000Y-92290000D01*
X176020000Y-92291000D01*
G36*
X176020000Y-92291000D02*
G01*
X176030000Y-92292000D01*
X176040000Y-92294000D01*
X176049000Y-92296000D01*
X176059000Y-92299000D01*
X176068000Y-92303000D01*
X176077000Y-92306000D01*
X176086000Y-92311000D01*
X176095000Y-92315000D01*
X176103000Y-92321000D01*
X176112000Y-92326000D01*
X176120000Y-92332000D01*
X176127000Y-92339000D01*
X176134000Y-92346000D01*
X176141000Y-92353000D01*
X176148000Y-92360000D01*
X176154000Y-92368000D01*
X176159000Y-92377000D01*
X176165000Y-92385000D01*
X176169000Y-92394000D01*
X176174000Y-92403000D01*
X176177000Y-92412000D01*
X176181000Y-92421000D01*
X176184000Y-92431000D01*
X176186000Y-92440000D01*
X176188000Y-92450000D01*
X176189000Y-92460000D01*
X176190000Y-92470000D01*
X176190000Y-92480000D01*
X176190000Y-92490000D01*
X176189000Y-92500000D01*
X176188000Y-92510000D01*
X176186000Y-92520000D01*
X176184000Y-92529000D01*
X176181000Y-92539000D01*
X176177000Y-92548000D01*
X176174000Y-92557000D01*
X176169000Y-92566000D01*
X176165000Y-92575000D01*
X176159000Y-92583000D01*
X176154000Y-92592000D01*
X176148000Y-92600000D01*
X176141000Y-92607000D01*
X176134000Y-92614000D01*
X176127000Y-92621000D01*
X176120000Y-92628000D01*
X176112000Y-92634000D01*
X176103000Y-92639000D01*
X176095000Y-92645000D01*
X176086000Y-92649000D01*
X176077000Y-92654000D01*
X176068000Y-92657000D01*
X176059000Y-92661000D01*
X176049000Y-92664000D01*
X176040000Y-92666000D01*
X176030000Y-92668000D01*
X176020000Y-92669000D01*
X176010000Y-92670000D01*
X176000000Y-92670000D01*
X175640000Y-92670000D01*
X175630000Y-92670000D01*
X175620000Y-92669000D01*
X175610000Y-92668000D01*
X175600000Y-92666000D01*
X175591000Y-92664000D01*
X175581000Y-92661000D01*
X175572000Y-92657000D01*
X175563000Y-92654000D01*
X175554000Y-92649000D01*
X175545000Y-92645000D01*
X175537000Y-92639000D01*
X175528000Y-92634000D01*
X175520000Y-92628000D01*
X175513000Y-92621000D01*
X175506000Y-92614000D01*
X175499000Y-92607000D01*
X175492000Y-92600000D01*
X175486000Y-92592000D01*
X175481000Y-92583000D01*
X175475000Y-92575000D01*
X175471000Y-92566000D01*
X175466000Y-92557000D01*
X175463000Y-92548000D01*
X175459000Y-92539000D01*
X175456000Y-92529000D01*
X175454000Y-92520000D01*
X175452000Y-92510000D01*
X175451000Y-92500000D01*
X175450000Y-92490000D01*
X175450000Y-92480000D01*
X175450000Y-92470000D01*
X175451000Y-92460000D01*
X175452000Y-92450000D01*
X175454000Y-92440000D01*
X175456000Y-92431000D01*
X175459000Y-92421000D01*
X175463000Y-92412000D01*
X175466000Y-92403000D01*
X175471000Y-92394000D01*
X175475000Y-92385000D01*
X175481000Y-92377000D01*
X175486000Y-92368000D01*
X175492000Y-92360000D01*
X175499000Y-92353000D01*
X175506000Y-92346000D01*
X175513000Y-92339000D01*
X175520000Y-92332000D01*
X175528000Y-92326000D01*
X175537000Y-92321000D01*
X175545000Y-92315000D01*
X175554000Y-92311000D01*
X175563000Y-92306000D01*
X175572000Y-92303000D01*
X175581000Y-92299000D01*
X175591000Y-92296000D01*
X175600000Y-92294000D01*
X175610000Y-92292000D01*
X175620000Y-92291000D01*
X175630000Y-92290000D01*
X175640000Y-92290000D01*
X176000000Y-92290000D01*
X176010000Y-92290000D01*
X176020000Y-92291000D01*
G37*
X176020000Y-91791000D02*
X176030000Y-91792000D01*
X176040000Y-91794000D01*
X176049000Y-91796000D01*
X176059000Y-91799000D01*
X176068000Y-91803000D01*
X176077000Y-91806000D01*
X176086000Y-91811000D01*
X176095000Y-91815000D01*
X176103000Y-91821000D01*
X176112000Y-91826000D01*
X176120000Y-91832000D01*
X176127000Y-91839000D01*
X176134000Y-91846000D01*
X176141000Y-91853000D01*
X176148000Y-91860000D01*
X176154000Y-91868000D01*
X176159000Y-91877000D01*
X176165000Y-91885000D01*
X176169000Y-91894000D01*
X176174000Y-91903000D01*
X176177000Y-91912000D01*
X176181000Y-91921000D01*
X176184000Y-91931000D01*
X176186000Y-91940000D01*
X176188000Y-91950000D01*
X176189000Y-91960000D01*
X176190000Y-91970000D01*
X176190000Y-91980000D01*
X176190000Y-91990000D01*
X176189000Y-92000000D01*
X176188000Y-92010000D01*
X176186000Y-92020000D01*
X176184000Y-92029000D01*
X176181000Y-92039000D01*
X176177000Y-92048000D01*
X176174000Y-92057000D01*
X176169000Y-92066000D01*
X176165000Y-92075000D01*
X176159000Y-92083000D01*
X176154000Y-92092000D01*
X176148000Y-92100000D01*
X176141000Y-92107000D01*
X176134000Y-92114000D01*
X176127000Y-92121000D01*
X176120000Y-92128000D01*
X176112000Y-92134000D01*
X176103000Y-92139000D01*
X176095000Y-92145000D01*
X176086000Y-92149000D01*
X176077000Y-92154000D01*
X176068000Y-92157000D01*
X176059000Y-92161000D01*
X176049000Y-92164000D01*
X176040000Y-92166000D01*
X176030000Y-92168000D01*
X176020000Y-92169000D01*
X176010000Y-92170000D01*
X176000000Y-92170000D01*
X175640000Y-92170000D01*
X175630000Y-92170000D01*
X175620000Y-92169000D01*
X175610000Y-92168000D01*
X175600000Y-92166000D01*
X175591000Y-92164000D01*
X175581000Y-92161000D01*
X175572000Y-92157000D01*
X175563000Y-92154000D01*
X175554000Y-92149000D01*
X175545000Y-92145000D01*
X175537000Y-92139000D01*
X175528000Y-92134000D01*
X175520000Y-92128000D01*
X175513000Y-92121000D01*
X175506000Y-92114000D01*
X175499000Y-92107000D01*
X175492000Y-92100000D01*
X175486000Y-92092000D01*
X175481000Y-92083000D01*
X175475000Y-92075000D01*
X175471000Y-92066000D01*
X175466000Y-92057000D01*
X175463000Y-92048000D01*
X175459000Y-92039000D01*
X175456000Y-92029000D01*
X175454000Y-92020000D01*
X175452000Y-92010000D01*
X175451000Y-92000000D01*
X175450000Y-91990000D01*
X175450000Y-91980000D01*
X175450000Y-91970000D01*
X175451000Y-91960000D01*
X175452000Y-91950000D01*
X175454000Y-91940000D01*
X175456000Y-91931000D01*
X175459000Y-91921000D01*
X175463000Y-91912000D01*
X175466000Y-91903000D01*
X175471000Y-91894000D01*
X175475000Y-91885000D01*
X175481000Y-91877000D01*
X175486000Y-91868000D01*
X175492000Y-91860000D01*
X175499000Y-91853000D01*
X175506000Y-91846000D01*
X175513000Y-91839000D01*
X175520000Y-91832000D01*
X175528000Y-91826000D01*
X175537000Y-91821000D01*
X175545000Y-91815000D01*
X175554000Y-91811000D01*
X175563000Y-91806000D01*
X175572000Y-91803000D01*
X175581000Y-91799000D01*
X175591000Y-91796000D01*
X175600000Y-91794000D01*
X175610000Y-91792000D01*
X175620000Y-91791000D01*
X175630000Y-91790000D01*
X175640000Y-91790000D01*
X176000000Y-91790000D01*
X176010000Y-91790000D01*
X176020000Y-91791000D01*
G36*
X176020000Y-91791000D02*
G01*
X176030000Y-91792000D01*
X176040000Y-91794000D01*
X176049000Y-91796000D01*
X176059000Y-91799000D01*
X176068000Y-91803000D01*
X176077000Y-91806000D01*
X176086000Y-91811000D01*
X176095000Y-91815000D01*
X176103000Y-91821000D01*
X176112000Y-91826000D01*
X176120000Y-91832000D01*
X176127000Y-91839000D01*
X176134000Y-91846000D01*
X176141000Y-91853000D01*
X176148000Y-91860000D01*
X176154000Y-91868000D01*
X176159000Y-91877000D01*
X176165000Y-91885000D01*
X176169000Y-91894000D01*
X176174000Y-91903000D01*
X176177000Y-91912000D01*
X176181000Y-91921000D01*
X176184000Y-91931000D01*
X176186000Y-91940000D01*
X176188000Y-91950000D01*
X176189000Y-91960000D01*
X176190000Y-91970000D01*
X176190000Y-91980000D01*
X176190000Y-91990000D01*
X176189000Y-92000000D01*
X176188000Y-92010000D01*
X176186000Y-92020000D01*
X176184000Y-92029000D01*
X176181000Y-92039000D01*
X176177000Y-92048000D01*
X176174000Y-92057000D01*
X176169000Y-92066000D01*
X176165000Y-92075000D01*
X176159000Y-92083000D01*
X176154000Y-92092000D01*
X176148000Y-92100000D01*
X176141000Y-92107000D01*
X176134000Y-92114000D01*
X176127000Y-92121000D01*
X176120000Y-92128000D01*
X176112000Y-92134000D01*
X176103000Y-92139000D01*
X176095000Y-92145000D01*
X176086000Y-92149000D01*
X176077000Y-92154000D01*
X176068000Y-92157000D01*
X176059000Y-92161000D01*
X176049000Y-92164000D01*
X176040000Y-92166000D01*
X176030000Y-92168000D01*
X176020000Y-92169000D01*
X176010000Y-92170000D01*
X176000000Y-92170000D01*
X175640000Y-92170000D01*
X175630000Y-92170000D01*
X175620000Y-92169000D01*
X175610000Y-92168000D01*
X175600000Y-92166000D01*
X175591000Y-92164000D01*
X175581000Y-92161000D01*
X175572000Y-92157000D01*
X175563000Y-92154000D01*
X175554000Y-92149000D01*
X175545000Y-92145000D01*
X175537000Y-92139000D01*
X175528000Y-92134000D01*
X175520000Y-92128000D01*
X175513000Y-92121000D01*
X175506000Y-92114000D01*
X175499000Y-92107000D01*
X175492000Y-92100000D01*
X175486000Y-92092000D01*
X175481000Y-92083000D01*
X175475000Y-92075000D01*
X175471000Y-92066000D01*
X175466000Y-92057000D01*
X175463000Y-92048000D01*
X175459000Y-92039000D01*
X175456000Y-92029000D01*
X175454000Y-92020000D01*
X175452000Y-92010000D01*
X175451000Y-92000000D01*
X175450000Y-91990000D01*
X175450000Y-91980000D01*
X175450000Y-91970000D01*
X175451000Y-91960000D01*
X175452000Y-91950000D01*
X175454000Y-91940000D01*
X175456000Y-91931000D01*
X175459000Y-91921000D01*
X175463000Y-91912000D01*
X175466000Y-91903000D01*
X175471000Y-91894000D01*
X175475000Y-91885000D01*
X175481000Y-91877000D01*
X175486000Y-91868000D01*
X175492000Y-91860000D01*
X175499000Y-91853000D01*
X175506000Y-91846000D01*
X175513000Y-91839000D01*
X175520000Y-91832000D01*
X175528000Y-91826000D01*
X175537000Y-91821000D01*
X175545000Y-91815000D01*
X175554000Y-91811000D01*
X175563000Y-91806000D01*
X175572000Y-91803000D01*
X175581000Y-91799000D01*
X175591000Y-91796000D01*
X175600000Y-91794000D01*
X175610000Y-91792000D01*
X175620000Y-91791000D01*
X175630000Y-91790000D01*
X175640000Y-91790000D01*
X176000000Y-91790000D01*
X176010000Y-91790000D01*
X176020000Y-91791000D01*
G37*
X176020000Y-91291000D02*
X176030000Y-91292000D01*
X176040000Y-91294000D01*
X176049000Y-91296000D01*
X176059000Y-91299000D01*
X176068000Y-91303000D01*
X176077000Y-91306000D01*
X176086000Y-91311000D01*
X176095000Y-91315000D01*
X176103000Y-91321000D01*
X176112000Y-91326000D01*
X176120000Y-91332000D01*
X176127000Y-91339000D01*
X176134000Y-91346000D01*
X176141000Y-91353000D01*
X176148000Y-91360000D01*
X176154000Y-91368000D01*
X176159000Y-91377000D01*
X176165000Y-91385000D01*
X176169000Y-91394000D01*
X176174000Y-91403000D01*
X176177000Y-91412000D01*
X176181000Y-91421000D01*
X176184000Y-91431000D01*
X176186000Y-91440000D01*
X176188000Y-91450000D01*
X176189000Y-91460000D01*
X176190000Y-91470000D01*
X176190000Y-91480000D01*
X176190000Y-91490000D01*
X176189000Y-91500000D01*
X176188000Y-91510000D01*
X176186000Y-91520000D01*
X176184000Y-91529000D01*
X176181000Y-91539000D01*
X176177000Y-91548000D01*
X176174000Y-91557000D01*
X176169000Y-91566000D01*
X176165000Y-91575000D01*
X176159000Y-91583000D01*
X176154000Y-91592000D01*
X176148000Y-91600000D01*
X176141000Y-91607000D01*
X176134000Y-91614000D01*
X176127000Y-91621000D01*
X176120000Y-91628000D01*
X176112000Y-91634000D01*
X176103000Y-91639000D01*
X176095000Y-91645000D01*
X176086000Y-91649000D01*
X176077000Y-91654000D01*
X176068000Y-91657000D01*
X176059000Y-91661000D01*
X176049000Y-91664000D01*
X176040000Y-91666000D01*
X176030000Y-91668000D01*
X176020000Y-91669000D01*
X176010000Y-91670000D01*
X176000000Y-91670000D01*
X175640000Y-91670000D01*
X175630000Y-91670000D01*
X175620000Y-91669000D01*
X175610000Y-91668000D01*
X175600000Y-91666000D01*
X175591000Y-91664000D01*
X175581000Y-91661000D01*
X175572000Y-91657000D01*
X175563000Y-91654000D01*
X175554000Y-91649000D01*
X175545000Y-91645000D01*
X175537000Y-91639000D01*
X175528000Y-91634000D01*
X175520000Y-91628000D01*
X175513000Y-91621000D01*
X175506000Y-91614000D01*
X175499000Y-91607000D01*
X175492000Y-91600000D01*
X175486000Y-91592000D01*
X175481000Y-91583000D01*
X175475000Y-91575000D01*
X175471000Y-91566000D01*
X175466000Y-91557000D01*
X175463000Y-91548000D01*
X175459000Y-91539000D01*
X175456000Y-91529000D01*
X175454000Y-91520000D01*
X175452000Y-91510000D01*
X175451000Y-91500000D01*
X175450000Y-91490000D01*
X175450000Y-91480000D01*
X175450000Y-91470000D01*
X175451000Y-91460000D01*
X175452000Y-91450000D01*
X175454000Y-91440000D01*
X175456000Y-91431000D01*
X175459000Y-91421000D01*
X175463000Y-91412000D01*
X175466000Y-91403000D01*
X175471000Y-91394000D01*
X175475000Y-91385000D01*
X175481000Y-91377000D01*
X175486000Y-91368000D01*
X175492000Y-91360000D01*
X175499000Y-91353000D01*
X175506000Y-91346000D01*
X175513000Y-91339000D01*
X175520000Y-91332000D01*
X175528000Y-91326000D01*
X175537000Y-91321000D01*
X175545000Y-91315000D01*
X175554000Y-91311000D01*
X175563000Y-91306000D01*
X175572000Y-91303000D01*
X175581000Y-91299000D01*
X175591000Y-91296000D01*
X175600000Y-91294000D01*
X175610000Y-91292000D01*
X175620000Y-91291000D01*
X175630000Y-91290000D01*
X175640000Y-91290000D01*
X176000000Y-91290000D01*
X176010000Y-91290000D01*
X176020000Y-91291000D01*
G36*
X176020000Y-91291000D02*
G01*
X176030000Y-91292000D01*
X176040000Y-91294000D01*
X176049000Y-91296000D01*
X176059000Y-91299000D01*
X176068000Y-91303000D01*
X176077000Y-91306000D01*
X176086000Y-91311000D01*
X176095000Y-91315000D01*
X176103000Y-91321000D01*
X176112000Y-91326000D01*
X176120000Y-91332000D01*
X176127000Y-91339000D01*
X176134000Y-91346000D01*
X176141000Y-91353000D01*
X176148000Y-91360000D01*
X176154000Y-91368000D01*
X176159000Y-91377000D01*
X176165000Y-91385000D01*
X176169000Y-91394000D01*
X176174000Y-91403000D01*
X176177000Y-91412000D01*
X176181000Y-91421000D01*
X176184000Y-91431000D01*
X176186000Y-91440000D01*
X176188000Y-91450000D01*
X176189000Y-91460000D01*
X176190000Y-91470000D01*
X176190000Y-91480000D01*
X176190000Y-91490000D01*
X176189000Y-91500000D01*
X176188000Y-91510000D01*
X176186000Y-91520000D01*
X176184000Y-91529000D01*
X176181000Y-91539000D01*
X176177000Y-91548000D01*
X176174000Y-91557000D01*
X176169000Y-91566000D01*
X176165000Y-91575000D01*
X176159000Y-91583000D01*
X176154000Y-91592000D01*
X176148000Y-91600000D01*
X176141000Y-91607000D01*
X176134000Y-91614000D01*
X176127000Y-91621000D01*
X176120000Y-91628000D01*
X176112000Y-91634000D01*
X176103000Y-91639000D01*
X176095000Y-91645000D01*
X176086000Y-91649000D01*
X176077000Y-91654000D01*
X176068000Y-91657000D01*
X176059000Y-91661000D01*
X176049000Y-91664000D01*
X176040000Y-91666000D01*
X176030000Y-91668000D01*
X176020000Y-91669000D01*
X176010000Y-91670000D01*
X176000000Y-91670000D01*
X175640000Y-91670000D01*
X175630000Y-91670000D01*
X175620000Y-91669000D01*
X175610000Y-91668000D01*
X175600000Y-91666000D01*
X175591000Y-91664000D01*
X175581000Y-91661000D01*
X175572000Y-91657000D01*
X175563000Y-91654000D01*
X175554000Y-91649000D01*
X175545000Y-91645000D01*
X175537000Y-91639000D01*
X175528000Y-91634000D01*
X175520000Y-91628000D01*
X175513000Y-91621000D01*
X175506000Y-91614000D01*
X175499000Y-91607000D01*
X175492000Y-91600000D01*
X175486000Y-91592000D01*
X175481000Y-91583000D01*
X175475000Y-91575000D01*
X175471000Y-91566000D01*
X175466000Y-91557000D01*
X175463000Y-91548000D01*
X175459000Y-91539000D01*
X175456000Y-91529000D01*
X175454000Y-91520000D01*
X175452000Y-91510000D01*
X175451000Y-91500000D01*
X175450000Y-91490000D01*
X175450000Y-91480000D01*
X175450000Y-91470000D01*
X175451000Y-91460000D01*
X175452000Y-91450000D01*
X175454000Y-91440000D01*
X175456000Y-91431000D01*
X175459000Y-91421000D01*
X175463000Y-91412000D01*
X175466000Y-91403000D01*
X175471000Y-91394000D01*
X175475000Y-91385000D01*
X175481000Y-91377000D01*
X175486000Y-91368000D01*
X175492000Y-91360000D01*
X175499000Y-91353000D01*
X175506000Y-91346000D01*
X175513000Y-91339000D01*
X175520000Y-91332000D01*
X175528000Y-91326000D01*
X175537000Y-91321000D01*
X175545000Y-91315000D01*
X175554000Y-91311000D01*
X175563000Y-91306000D01*
X175572000Y-91303000D01*
X175581000Y-91299000D01*
X175591000Y-91296000D01*
X175600000Y-91294000D01*
X175610000Y-91292000D01*
X175620000Y-91291000D01*
X175630000Y-91290000D01*
X175640000Y-91290000D01*
X176000000Y-91290000D01*
X176010000Y-91290000D01*
X176020000Y-91291000D01*
G37*
X176020000Y-90791000D02*
X176030000Y-90792000D01*
X176040000Y-90794000D01*
X176049000Y-90796000D01*
X176059000Y-90799000D01*
X176068000Y-90803000D01*
X176077000Y-90806000D01*
X176086000Y-90811000D01*
X176095000Y-90815000D01*
X176103000Y-90821000D01*
X176112000Y-90826000D01*
X176120000Y-90832000D01*
X176127000Y-90839000D01*
X176134000Y-90846000D01*
X176141000Y-90853000D01*
X176148000Y-90860000D01*
X176154000Y-90868000D01*
X176159000Y-90877000D01*
X176165000Y-90885000D01*
X176169000Y-90894000D01*
X176174000Y-90903000D01*
X176177000Y-90912000D01*
X176181000Y-90921000D01*
X176184000Y-90931000D01*
X176186000Y-90940000D01*
X176188000Y-90950000D01*
X176189000Y-90960000D01*
X176190000Y-90970000D01*
X176190000Y-90980000D01*
X176190000Y-90990000D01*
X176189000Y-91000000D01*
X176188000Y-91010000D01*
X176186000Y-91020000D01*
X176184000Y-91029000D01*
X176181000Y-91039000D01*
X176177000Y-91048000D01*
X176174000Y-91057000D01*
X176169000Y-91066000D01*
X176165000Y-91075000D01*
X176159000Y-91083000D01*
X176154000Y-91092000D01*
X176148000Y-91100000D01*
X176141000Y-91107000D01*
X176134000Y-91114000D01*
X176127000Y-91121000D01*
X176120000Y-91128000D01*
X176112000Y-91134000D01*
X176103000Y-91139000D01*
X176095000Y-91145000D01*
X176086000Y-91149000D01*
X176077000Y-91154000D01*
X176068000Y-91157000D01*
X176059000Y-91161000D01*
X176049000Y-91164000D01*
X176040000Y-91166000D01*
X176030000Y-91168000D01*
X176020000Y-91169000D01*
X176010000Y-91170000D01*
X176000000Y-91170000D01*
X175640000Y-91170000D01*
X175630000Y-91170000D01*
X175620000Y-91169000D01*
X175610000Y-91168000D01*
X175600000Y-91166000D01*
X175591000Y-91164000D01*
X175581000Y-91161000D01*
X175572000Y-91157000D01*
X175563000Y-91154000D01*
X175554000Y-91149000D01*
X175545000Y-91145000D01*
X175537000Y-91139000D01*
X175528000Y-91134000D01*
X175520000Y-91128000D01*
X175513000Y-91121000D01*
X175506000Y-91114000D01*
X175499000Y-91107000D01*
X175492000Y-91100000D01*
X175486000Y-91092000D01*
X175481000Y-91083000D01*
X175475000Y-91075000D01*
X175471000Y-91066000D01*
X175466000Y-91057000D01*
X175463000Y-91048000D01*
X175459000Y-91039000D01*
X175456000Y-91029000D01*
X175454000Y-91020000D01*
X175452000Y-91010000D01*
X175451000Y-91000000D01*
X175450000Y-90990000D01*
X175450000Y-90980000D01*
X175450000Y-90970000D01*
X175451000Y-90960000D01*
X175452000Y-90950000D01*
X175454000Y-90940000D01*
X175456000Y-90931000D01*
X175459000Y-90921000D01*
X175463000Y-90912000D01*
X175466000Y-90903000D01*
X175471000Y-90894000D01*
X175475000Y-90885000D01*
X175481000Y-90877000D01*
X175486000Y-90868000D01*
X175492000Y-90860000D01*
X175499000Y-90853000D01*
X175506000Y-90846000D01*
X175513000Y-90839000D01*
X175520000Y-90832000D01*
X175528000Y-90826000D01*
X175537000Y-90821000D01*
X175545000Y-90815000D01*
X175554000Y-90811000D01*
X175563000Y-90806000D01*
X175572000Y-90803000D01*
X175581000Y-90799000D01*
X175591000Y-90796000D01*
X175600000Y-90794000D01*
X175610000Y-90792000D01*
X175620000Y-90791000D01*
X175630000Y-90790000D01*
X175640000Y-90790000D01*
X176000000Y-90790000D01*
X176010000Y-90790000D01*
X176020000Y-90791000D01*
G36*
X176020000Y-90791000D02*
G01*
X176030000Y-90792000D01*
X176040000Y-90794000D01*
X176049000Y-90796000D01*
X176059000Y-90799000D01*
X176068000Y-90803000D01*
X176077000Y-90806000D01*
X176086000Y-90811000D01*
X176095000Y-90815000D01*
X176103000Y-90821000D01*
X176112000Y-90826000D01*
X176120000Y-90832000D01*
X176127000Y-90839000D01*
X176134000Y-90846000D01*
X176141000Y-90853000D01*
X176148000Y-90860000D01*
X176154000Y-90868000D01*
X176159000Y-90877000D01*
X176165000Y-90885000D01*
X176169000Y-90894000D01*
X176174000Y-90903000D01*
X176177000Y-90912000D01*
X176181000Y-90921000D01*
X176184000Y-90931000D01*
X176186000Y-90940000D01*
X176188000Y-90950000D01*
X176189000Y-90960000D01*
X176190000Y-90970000D01*
X176190000Y-90980000D01*
X176190000Y-90990000D01*
X176189000Y-91000000D01*
X176188000Y-91010000D01*
X176186000Y-91020000D01*
X176184000Y-91029000D01*
X176181000Y-91039000D01*
X176177000Y-91048000D01*
X176174000Y-91057000D01*
X176169000Y-91066000D01*
X176165000Y-91075000D01*
X176159000Y-91083000D01*
X176154000Y-91092000D01*
X176148000Y-91100000D01*
X176141000Y-91107000D01*
X176134000Y-91114000D01*
X176127000Y-91121000D01*
X176120000Y-91128000D01*
X176112000Y-91134000D01*
X176103000Y-91139000D01*
X176095000Y-91145000D01*
X176086000Y-91149000D01*
X176077000Y-91154000D01*
X176068000Y-91157000D01*
X176059000Y-91161000D01*
X176049000Y-91164000D01*
X176040000Y-91166000D01*
X176030000Y-91168000D01*
X176020000Y-91169000D01*
X176010000Y-91170000D01*
X176000000Y-91170000D01*
X175640000Y-91170000D01*
X175630000Y-91170000D01*
X175620000Y-91169000D01*
X175610000Y-91168000D01*
X175600000Y-91166000D01*
X175591000Y-91164000D01*
X175581000Y-91161000D01*
X175572000Y-91157000D01*
X175563000Y-91154000D01*
X175554000Y-91149000D01*
X175545000Y-91145000D01*
X175537000Y-91139000D01*
X175528000Y-91134000D01*
X175520000Y-91128000D01*
X175513000Y-91121000D01*
X175506000Y-91114000D01*
X175499000Y-91107000D01*
X175492000Y-91100000D01*
X175486000Y-91092000D01*
X175481000Y-91083000D01*
X175475000Y-91075000D01*
X175471000Y-91066000D01*
X175466000Y-91057000D01*
X175463000Y-91048000D01*
X175459000Y-91039000D01*
X175456000Y-91029000D01*
X175454000Y-91020000D01*
X175452000Y-91010000D01*
X175451000Y-91000000D01*
X175450000Y-90990000D01*
X175450000Y-90980000D01*
X175450000Y-90970000D01*
X175451000Y-90960000D01*
X175452000Y-90950000D01*
X175454000Y-90940000D01*
X175456000Y-90931000D01*
X175459000Y-90921000D01*
X175463000Y-90912000D01*
X175466000Y-90903000D01*
X175471000Y-90894000D01*
X175475000Y-90885000D01*
X175481000Y-90877000D01*
X175486000Y-90868000D01*
X175492000Y-90860000D01*
X175499000Y-90853000D01*
X175506000Y-90846000D01*
X175513000Y-90839000D01*
X175520000Y-90832000D01*
X175528000Y-90826000D01*
X175537000Y-90821000D01*
X175545000Y-90815000D01*
X175554000Y-90811000D01*
X175563000Y-90806000D01*
X175572000Y-90803000D01*
X175581000Y-90799000D01*
X175591000Y-90796000D01*
X175600000Y-90794000D01*
X175610000Y-90792000D01*
X175620000Y-90791000D01*
X175630000Y-90790000D01*
X175640000Y-90790000D01*
X176000000Y-90790000D01*
X176010000Y-90790000D01*
X176020000Y-90791000D01*
G37*
X176020000Y-90291000D02*
X176030000Y-90292000D01*
X176040000Y-90294000D01*
X176049000Y-90296000D01*
X176059000Y-90299000D01*
X176068000Y-90303000D01*
X176077000Y-90306000D01*
X176086000Y-90311000D01*
X176095000Y-90315000D01*
X176103000Y-90321000D01*
X176112000Y-90326000D01*
X176120000Y-90332000D01*
X176127000Y-90339000D01*
X176134000Y-90346000D01*
X176141000Y-90353000D01*
X176148000Y-90360000D01*
X176154000Y-90368000D01*
X176159000Y-90377000D01*
X176165000Y-90385000D01*
X176169000Y-90394000D01*
X176174000Y-90403000D01*
X176177000Y-90412000D01*
X176181000Y-90421000D01*
X176184000Y-90431000D01*
X176186000Y-90440000D01*
X176188000Y-90450000D01*
X176189000Y-90460000D01*
X176190000Y-90470000D01*
X176190000Y-90480000D01*
X176190000Y-90490000D01*
X176189000Y-90500000D01*
X176188000Y-90510000D01*
X176186000Y-90520000D01*
X176184000Y-90529000D01*
X176181000Y-90539000D01*
X176177000Y-90548000D01*
X176174000Y-90557000D01*
X176169000Y-90566000D01*
X176165000Y-90575000D01*
X176159000Y-90583000D01*
X176154000Y-90592000D01*
X176148000Y-90600000D01*
X176141000Y-90607000D01*
X176134000Y-90614000D01*
X176127000Y-90621000D01*
X176120000Y-90628000D01*
X176112000Y-90634000D01*
X176103000Y-90639000D01*
X176095000Y-90645000D01*
X176086000Y-90649000D01*
X176077000Y-90654000D01*
X176068000Y-90657000D01*
X176059000Y-90661000D01*
X176049000Y-90664000D01*
X176040000Y-90666000D01*
X176030000Y-90668000D01*
X176020000Y-90669000D01*
X176010000Y-90670000D01*
X176000000Y-90670000D01*
X175640000Y-90670000D01*
X175630000Y-90670000D01*
X175620000Y-90669000D01*
X175610000Y-90668000D01*
X175600000Y-90666000D01*
X175591000Y-90664000D01*
X175581000Y-90661000D01*
X175572000Y-90657000D01*
X175563000Y-90654000D01*
X175554000Y-90649000D01*
X175545000Y-90645000D01*
X175537000Y-90639000D01*
X175528000Y-90634000D01*
X175520000Y-90628000D01*
X175513000Y-90621000D01*
X175506000Y-90614000D01*
X175499000Y-90607000D01*
X175492000Y-90600000D01*
X175486000Y-90592000D01*
X175481000Y-90583000D01*
X175475000Y-90575000D01*
X175471000Y-90566000D01*
X175466000Y-90557000D01*
X175463000Y-90548000D01*
X175459000Y-90539000D01*
X175456000Y-90529000D01*
X175454000Y-90520000D01*
X175452000Y-90510000D01*
X175451000Y-90500000D01*
X175450000Y-90490000D01*
X175450000Y-90480000D01*
X175450000Y-90470000D01*
X175451000Y-90460000D01*
X175452000Y-90450000D01*
X175454000Y-90440000D01*
X175456000Y-90431000D01*
X175459000Y-90421000D01*
X175463000Y-90412000D01*
X175466000Y-90403000D01*
X175471000Y-90394000D01*
X175475000Y-90385000D01*
X175481000Y-90377000D01*
X175486000Y-90368000D01*
X175492000Y-90360000D01*
X175499000Y-90353000D01*
X175506000Y-90346000D01*
X175513000Y-90339000D01*
X175520000Y-90332000D01*
X175528000Y-90326000D01*
X175537000Y-90321000D01*
X175545000Y-90315000D01*
X175554000Y-90311000D01*
X175563000Y-90306000D01*
X175572000Y-90303000D01*
X175581000Y-90299000D01*
X175591000Y-90296000D01*
X175600000Y-90294000D01*
X175610000Y-90292000D01*
X175620000Y-90291000D01*
X175630000Y-90290000D01*
X175640000Y-90290000D01*
X176000000Y-90290000D01*
X176010000Y-90290000D01*
X176020000Y-90291000D01*
G36*
X176020000Y-90291000D02*
G01*
X176030000Y-90292000D01*
X176040000Y-90294000D01*
X176049000Y-90296000D01*
X176059000Y-90299000D01*
X176068000Y-90303000D01*
X176077000Y-90306000D01*
X176086000Y-90311000D01*
X176095000Y-90315000D01*
X176103000Y-90321000D01*
X176112000Y-90326000D01*
X176120000Y-90332000D01*
X176127000Y-90339000D01*
X176134000Y-90346000D01*
X176141000Y-90353000D01*
X176148000Y-90360000D01*
X176154000Y-90368000D01*
X176159000Y-90377000D01*
X176165000Y-90385000D01*
X176169000Y-90394000D01*
X176174000Y-90403000D01*
X176177000Y-90412000D01*
X176181000Y-90421000D01*
X176184000Y-90431000D01*
X176186000Y-90440000D01*
X176188000Y-90450000D01*
X176189000Y-90460000D01*
X176190000Y-90470000D01*
X176190000Y-90480000D01*
X176190000Y-90490000D01*
X176189000Y-90500000D01*
X176188000Y-90510000D01*
X176186000Y-90520000D01*
X176184000Y-90529000D01*
X176181000Y-90539000D01*
X176177000Y-90548000D01*
X176174000Y-90557000D01*
X176169000Y-90566000D01*
X176165000Y-90575000D01*
X176159000Y-90583000D01*
X176154000Y-90592000D01*
X176148000Y-90600000D01*
X176141000Y-90607000D01*
X176134000Y-90614000D01*
X176127000Y-90621000D01*
X176120000Y-90628000D01*
X176112000Y-90634000D01*
X176103000Y-90639000D01*
X176095000Y-90645000D01*
X176086000Y-90649000D01*
X176077000Y-90654000D01*
X176068000Y-90657000D01*
X176059000Y-90661000D01*
X176049000Y-90664000D01*
X176040000Y-90666000D01*
X176030000Y-90668000D01*
X176020000Y-90669000D01*
X176010000Y-90670000D01*
X176000000Y-90670000D01*
X175640000Y-90670000D01*
X175630000Y-90670000D01*
X175620000Y-90669000D01*
X175610000Y-90668000D01*
X175600000Y-90666000D01*
X175591000Y-90664000D01*
X175581000Y-90661000D01*
X175572000Y-90657000D01*
X175563000Y-90654000D01*
X175554000Y-90649000D01*
X175545000Y-90645000D01*
X175537000Y-90639000D01*
X175528000Y-90634000D01*
X175520000Y-90628000D01*
X175513000Y-90621000D01*
X175506000Y-90614000D01*
X175499000Y-90607000D01*
X175492000Y-90600000D01*
X175486000Y-90592000D01*
X175481000Y-90583000D01*
X175475000Y-90575000D01*
X175471000Y-90566000D01*
X175466000Y-90557000D01*
X175463000Y-90548000D01*
X175459000Y-90539000D01*
X175456000Y-90529000D01*
X175454000Y-90520000D01*
X175452000Y-90510000D01*
X175451000Y-90500000D01*
X175450000Y-90490000D01*
X175450000Y-90480000D01*
X175450000Y-90470000D01*
X175451000Y-90460000D01*
X175452000Y-90450000D01*
X175454000Y-90440000D01*
X175456000Y-90431000D01*
X175459000Y-90421000D01*
X175463000Y-90412000D01*
X175466000Y-90403000D01*
X175471000Y-90394000D01*
X175475000Y-90385000D01*
X175481000Y-90377000D01*
X175486000Y-90368000D01*
X175492000Y-90360000D01*
X175499000Y-90353000D01*
X175506000Y-90346000D01*
X175513000Y-90339000D01*
X175520000Y-90332000D01*
X175528000Y-90326000D01*
X175537000Y-90321000D01*
X175545000Y-90315000D01*
X175554000Y-90311000D01*
X175563000Y-90306000D01*
X175572000Y-90303000D01*
X175581000Y-90299000D01*
X175591000Y-90296000D01*
X175600000Y-90294000D01*
X175610000Y-90292000D01*
X175620000Y-90291000D01*
X175630000Y-90290000D01*
X175640000Y-90290000D01*
X176000000Y-90290000D01*
X176010000Y-90290000D01*
X176020000Y-90291000D01*
G37*
X176020000Y-89791000D02*
X176030000Y-89792000D01*
X176040000Y-89794000D01*
X176049000Y-89796000D01*
X176059000Y-89799000D01*
X176068000Y-89803000D01*
X176077000Y-89806000D01*
X176086000Y-89811000D01*
X176095000Y-89815000D01*
X176103000Y-89821000D01*
X176112000Y-89826000D01*
X176120000Y-89832000D01*
X176127000Y-89839000D01*
X176134000Y-89846000D01*
X176141000Y-89853000D01*
X176148000Y-89860000D01*
X176154000Y-89868000D01*
X176159000Y-89877000D01*
X176165000Y-89885000D01*
X176169000Y-89894000D01*
X176174000Y-89903000D01*
X176177000Y-89912000D01*
X176181000Y-89921000D01*
X176184000Y-89931000D01*
X176186000Y-89940000D01*
X176188000Y-89950000D01*
X176189000Y-89960000D01*
X176190000Y-89970000D01*
X176190000Y-89980000D01*
X176190000Y-89990000D01*
X176189000Y-90000000D01*
X176188000Y-90010000D01*
X176186000Y-90020000D01*
X176184000Y-90029000D01*
X176181000Y-90039000D01*
X176177000Y-90048000D01*
X176174000Y-90057000D01*
X176169000Y-90066000D01*
X176165000Y-90075000D01*
X176159000Y-90083000D01*
X176154000Y-90092000D01*
X176148000Y-90100000D01*
X176141000Y-90107000D01*
X176134000Y-90114000D01*
X176127000Y-90121000D01*
X176120000Y-90128000D01*
X176112000Y-90134000D01*
X176103000Y-90139000D01*
X176095000Y-90145000D01*
X176086000Y-90149000D01*
X176077000Y-90154000D01*
X176068000Y-90157000D01*
X176059000Y-90161000D01*
X176049000Y-90164000D01*
X176040000Y-90166000D01*
X176030000Y-90168000D01*
X176020000Y-90169000D01*
X176010000Y-90170000D01*
X176000000Y-90170000D01*
X175640000Y-90170000D01*
X175630000Y-90170000D01*
X175620000Y-90169000D01*
X175610000Y-90168000D01*
X175600000Y-90166000D01*
X175591000Y-90164000D01*
X175581000Y-90161000D01*
X175572000Y-90157000D01*
X175563000Y-90154000D01*
X175554000Y-90149000D01*
X175545000Y-90145000D01*
X175537000Y-90139000D01*
X175528000Y-90134000D01*
X175520000Y-90128000D01*
X175513000Y-90121000D01*
X175506000Y-90114000D01*
X175499000Y-90107000D01*
X175492000Y-90100000D01*
X175486000Y-90092000D01*
X175481000Y-90083000D01*
X175475000Y-90075000D01*
X175471000Y-90066000D01*
X175466000Y-90057000D01*
X175463000Y-90048000D01*
X175459000Y-90039000D01*
X175456000Y-90029000D01*
X175454000Y-90020000D01*
X175452000Y-90010000D01*
X175451000Y-90000000D01*
X175450000Y-89990000D01*
X175450000Y-89980000D01*
X175450000Y-89970000D01*
X175451000Y-89960000D01*
X175452000Y-89950000D01*
X175454000Y-89940000D01*
X175456000Y-89931000D01*
X175459000Y-89921000D01*
X175463000Y-89912000D01*
X175466000Y-89903000D01*
X175471000Y-89894000D01*
X175475000Y-89885000D01*
X175481000Y-89877000D01*
X175486000Y-89868000D01*
X175492000Y-89860000D01*
X175499000Y-89853000D01*
X175506000Y-89846000D01*
X175513000Y-89839000D01*
X175520000Y-89832000D01*
X175528000Y-89826000D01*
X175537000Y-89821000D01*
X175545000Y-89815000D01*
X175554000Y-89811000D01*
X175563000Y-89806000D01*
X175572000Y-89803000D01*
X175581000Y-89799000D01*
X175591000Y-89796000D01*
X175600000Y-89794000D01*
X175610000Y-89792000D01*
X175620000Y-89791000D01*
X175630000Y-89790000D01*
X175640000Y-89790000D01*
X176000000Y-89790000D01*
X176010000Y-89790000D01*
X176020000Y-89791000D01*
G36*
X176020000Y-89791000D02*
G01*
X176030000Y-89792000D01*
X176040000Y-89794000D01*
X176049000Y-89796000D01*
X176059000Y-89799000D01*
X176068000Y-89803000D01*
X176077000Y-89806000D01*
X176086000Y-89811000D01*
X176095000Y-89815000D01*
X176103000Y-89821000D01*
X176112000Y-89826000D01*
X176120000Y-89832000D01*
X176127000Y-89839000D01*
X176134000Y-89846000D01*
X176141000Y-89853000D01*
X176148000Y-89860000D01*
X176154000Y-89868000D01*
X176159000Y-89877000D01*
X176165000Y-89885000D01*
X176169000Y-89894000D01*
X176174000Y-89903000D01*
X176177000Y-89912000D01*
X176181000Y-89921000D01*
X176184000Y-89931000D01*
X176186000Y-89940000D01*
X176188000Y-89950000D01*
X176189000Y-89960000D01*
X176190000Y-89970000D01*
X176190000Y-89980000D01*
X176190000Y-89990000D01*
X176189000Y-90000000D01*
X176188000Y-90010000D01*
X176186000Y-90020000D01*
X176184000Y-90029000D01*
X176181000Y-90039000D01*
X176177000Y-90048000D01*
X176174000Y-90057000D01*
X176169000Y-90066000D01*
X176165000Y-90075000D01*
X176159000Y-90083000D01*
X176154000Y-90092000D01*
X176148000Y-90100000D01*
X176141000Y-90107000D01*
X176134000Y-90114000D01*
X176127000Y-90121000D01*
X176120000Y-90128000D01*
X176112000Y-90134000D01*
X176103000Y-90139000D01*
X176095000Y-90145000D01*
X176086000Y-90149000D01*
X176077000Y-90154000D01*
X176068000Y-90157000D01*
X176059000Y-90161000D01*
X176049000Y-90164000D01*
X176040000Y-90166000D01*
X176030000Y-90168000D01*
X176020000Y-90169000D01*
X176010000Y-90170000D01*
X176000000Y-90170000D01*
X175640000Y-90170000D01*
X175630000Y-90170000D01*
X175620000Y-90169000D01*
X175610000Y-90168000D01*
X175600000Y-90166000D01*
X175591000Y-90164000D01*
X175581000Y-90161000D01*
X175572000Y-90157000D01*
X175563000Y-90154000D01*
X175554000Y-90149000D01*
X175545000Y-90145000D01*
X175537000Y-90139000D01*
X175528000Y-90134000D01*
X175520000Y-90128000D01*
X175513000Y-90121000D01*
X175506000Y-90114000D01*
X175499000Y-90107000D01*
X175492000Y-90100000D01*
X175486000Y-90092000D01*
X175481000Y-90083000D01*
X175475000Y-90075000D01*
X175471000Y-90066000D01*
X175466000Y-90057000D01*
X175463000Y-90048000D01*
X175459000Y-90039000D01*
X175456000Y-90029000D01*
X175454000Y-90020000D01*
X175452000Y-90010000D01*
X175451000Y-90000000D01*
X175450000Y-89990000D01*
X175450000Y-89980000D01*
X175450000Y-89970000D01*
X175451000Y-89960000D01*
X175452000Y-89950000D01*
X175454000Y-89940000D01*
X175456000Y-89931000D01*
X175459000Y-89921000D01*
X175463000Y-89912000D01*
X175466000Y-89903000D01*
X175471000Y-89894000D01*
X175475000Y-89885000D01*
X175481000Y-89877000D01*
X175486000Y-89868000D01*
X175492000Y-89860000D01*
X175499000Y-89853000D01*
X175506000Y-89846000D01*
X175513000Y-89839000D01*
X175520000Y-89832000D01*
X175528000Y-89826000D01*
X175537000Y-89821000D01*
X175545000Y-89815000D01*
X175554000Y-89811000D01*
X175563000Y-89806000D01*
X175572000Y-89803000D01*
X175581000Y-89799000D01*
X175591000Y-89796000D01*
X175600000Y-89794000D01*
X175610000Y-89792000D01*
X175620000Y-89791000D01*
X175630000Y-89790000D01*
X175640000Y-89790000D01*
X176000000Y-89790000D01*
X176010000Y-89790000D01*
X176020000Y-89791000D01*
G37*
X173220000Y-92791000D02*
X173230000Y-92792000D01*
X173240000Y-92794000D01*
X173249000Y-92796000D01*
X173259000Y-92799000D01*
X173268000Y-92803000D01*
X173277000Y-92806000D01*
X173286000Y-92811000D01*
X173295000Y-92815000D01*
X173303000Y-92821000D01*
X173312000Y-92826000D01*
X173320000Y-92832000D01*
X173327000Y-92839000D01*
X173334000Y-92846000D01*
X173341000Y-92853000D01*
X173348000Y-92860000D01*
X173354000Y-92868000D01*
X173359000Y-92877000D01*
X173365000Y-92885000D01*
X173369000Y-92894000D01*
X173374000Y-92903000D01*
X173377000Y-92912000D01*
X173381000Y-92921000D01*
X173384000Y-92931000D01*
X173386000Y-92940000D01*
X173388000Y-92950000D01*
X173389000Y-92960000D01*
X173390000Y-92970000D01*
X173390000Y-92980000D01*
X173390000Y-92990000D01*
X173389000Y-93000000D01*
X173388000Y-93010000D01*
X173386000Y-93020000D01*
X173384000Y-93029000D01*
X173381000Y-93039000D01*
X173377000Y-93048000D01*
X173374000Y-93057000D01*
X173369000Y-93066000D01*
X173365000Y-93075000D01*
X173359000Y-93083000D01*
X173354000Y-93092000D01*
X173348000Y-93100000D01*
X173341000Y-93107000D01*
X173334000Y-93114000D01*
X173327000Y-93121000D01*
X173320000Y-93128000D01*
X173312000Y-93134000D01*
X173303000Y-93139000D01*
X173295000Y-93145000D01*
X173286000Y-93149000D01*
X173277000Y-93154000D01*
X173268000Y-93157000D01*
X173259000Y-93161000D01*
X173249000Y-93164000D01*
X173240000Y-93166000D01*
X173230000Y-93168000D01*
X173220000Y-93169000D01*
X173210000Y-93170000D01*
X173200000Y-93170000D01*
X172840000Y-93170000D01*
X172830000Y-93170000D01*
X172820000Y-93169000D01*
X172810000Y-93168000D01*
X172800000Y-93166000D01*
X172791000Y-93164000D01*
X172781000Y-93161000D01*
X172772000Y-93157000D01*
X172763000Y-93154000D01*
X172754000Y-93149000D01*
X172745000Y-93145000D01*
X172737000Y-93139000D01*
X172728000Y-93134000D01*
X172720000Y-93128000D01*
X172713000Y-93121000D01*
X172706000Y-93114000D01*
X172699000Y-93107000D01*
X172692000Y-93100000D01*
X172686000Y-93092000D01*
X172681000Y-93083000D01*
X172675000Y-93075000D01*
X172671000Y-93066000D01*
X172666000Y-93057000D01*
X172663000Y-93048000D01*
X172659000Y-93039000D01*
X172656000Y-93029000D01*
X172654000Y-93020000D01*
X172652000Y-93010000D01*
X172651000Y-93000000D01*
X172650000Y-92990000D01*
X172650000Y-92980000D01*
X172650000Y-92970000D01*
X172651000Y-92960000D01*
X172652000Y-92950000D01*
X172654000Y-92940000D01*
X172656000Y-92931000D01*
X172659000Y-92921000D01*
X172663000Y-92912000D01*
X172666000Y-92903000D01*
X172671000Y-92894000D01*
X172675000Y-92885000D01*
X172681000Y-92877000D01*
X172686000Y-92868000D01*
X172692000Y-92860000D01*
X172699000Y-92853000D01*
X172706000Y-92846000D01*
X172713000Y-92839000D01*
X172720000Y-92832000D01*
X172728000Y-92826000D01*
X172737000Y-92821000D01*
X172745000Y-92815000D01*
X172754000Y-92811000D01*
X172763000Y-92806000D01*
X172772000Y-92803000D01*
X172781000Y-92799000D01*
X172791000Y-92796000D01*
X172800000Y-92794000D01*
X172810000Y-92792000D01*
X172820000Y-92791000D01*
X172830000Y-92790000D01*
X172840000Y-92790000D01*
X173200000Y-92790000D01*
X173210000Y-92790000D01*
X173220000Y-92791000D01*
G36*
X173220000Y-92791000D02*
G01*
X173230000Y-92792000D01*
X173240000Y-92794000D01*
X173249000Y-92796000D01*
X173259000Y-92799000D01*
X173268000Y-92803000D01*
X173277000Y-92806000D01*
X173286000Y-92811000D01*
X173295000Y-92815000D01*
X173303000Y-92821000D01*
X173312000Y-92826000D01*
X173320000Y-92832000D01*
X173327000Y-92839000D01*
X173334000Y-92846000D01*
X173341000Y-92853000D01*
X173348000Y-92860000D01*
X173354000Y-92868000D01*
X173359000Y-92877000D01*
X173365000Y-92885000D01*
X173369000Y-92894000D01*
X173374000Y-92903000D01*
X173377000Y-92912000D01*
X173381000Y-92921000D01*
X173384000Y-92931000D01*
X173386000Y-92940000D01*
X173388000Y-92950000D01*
X173389000Y-92960000D01*
X173390000Y-92970000D01*
X173390000Y-92980000D01*
X173390000Y-92990000D01*
X173389000Y-93000000D01*
X173388000Y-93010000D01*
X173386000Y-93020000D01*
X173384000Y-93029000D01*
X173381000Y-93039000D01*
X173377000Y-93048000D01*
X173374000Y-93057000D01*
X173369000Y-93066000D01*
X173365000Y-93075000D01*
X173359000Y-93083000D01*
X173354000Y-93092000D01*
X173348000Y-93100000D01*
X173341000Y-93107000D01*
X173334000Y-93114000D01*
X173327000Y-93121000D01*
X173320000Y-93128000D01*
X173312000Y-93134000D01*
X173303000Y-93139000D01*
X173295000Y-93145000D01*
X173286000Y-93149000D01*
X173277000Y-93154000D01*
X173268000Y-93157000D01*
X173259000Y-93161000D01*
X173249000Y-93164000D01*
X173240000Y-93166000D01*
X173230000Y-93168000D01*
X173220000Y-93169000D01*
X173210000Y-93170000D01*
X173200000Y-93170000D01*
X172840000Y-93170000D01*
X172830000Y-93170000D01*
X172820000Y-93169000D01*
X172810000Y-93168000D01*
X172800000Y-93166000D01*
X172791000Y-93164000D01*
X172781000Y-93161000D01*
X172772000Y-93157000D01*
X172763000Y-93154000D01*
X172754000Y-93149000D01*
X172745000Y-93145000D01*
X172737000Y-93139000D01*
X172728000Y-93134000D01*
X172720000Y-93128000D01*
X172713000Y-93121000D01*
X172706000Y-93114000D01*
X172699000Y-93107000D01*
X172692000Y-93100000D01*
X172686000Y-93092000D01*
X172681000Y-93083000D01*
X172675000Y-93075000D01*
X172671000Y-93066000D01*
X172666000Y-93057000D01*
X172663000Y-93048000D01*
X172659000Y-93039000D01*
X172656000Y-93029000D01*
X172654000Y-93020000D01*
X172652000Y-93010000D01*
X172651000Y-93000000D01*
X172650000Y-92990000D01*
X172650000Y-92980000D01*
X172650000Y-92970000D01*
X172651000Y-92960000D01*
X172652000Y-92950000D01*
X172654000Y-92940000D01*
X172656000Y-92931000D01*
X172659000Y-92921000D01*
X172663000Y-92912000D01*
X172666000Y-92903000D01*
X172671000Y-92894000D01*
X172675000Y-92885000D01*
X172681000Y-92877000D01*
X172686000Y-92868000D01*
X172692000Y-92860000D01*
X172699000Y-92853000D01*
X172706000Y-92846000D01*
X172713000Y-92839000D01*
X172720000Y-92832000D01*
X172728000Y-92826000D01*
X172737000Y-92821000D01*
X172745000Y-92815000D01*
X172754000Y-92811000D01*
X172763000Y-92806000D01*
X172772000Y-92803000D01*
X172781000Y-92799000D01*
X172791000Y-92796000D01*
X172800000Y-92794000D01*
X172810000Y-92792000D01*
X172820000Y-92791000D01*
X172830000Y-92790000D01*
X172840000Y-92790000D01*
X173200000Y-92790000D01*
X173210000Y-92790000D01*
X173220000Y-92791000D01*
G37*
X173220000Y-92291000D02*
X173230000Y-92292000D01*
X173240000Y-92294000D01*
X173249000Y-92296000D01*
X173259000Y-92299000D01*
X173268000Y-92303000D01*
X173277000Y-92306000D01*
X173286000Y-92311000D01*
X173295000Y-92315000D01*
X173303000Y-92321000D01*
X173312000Y-92326000D01*
X173320000Y-92332000D01*
X173327000Y-92339000D01*
X173334000Y-92346000D01*
X173341000Y-92353000D01*
X173348000Y-92360000D01*
X173354000Y-92368000D01*
X173359000Y-92377000D01*
X173365000Y-92385000D01*
X173369000Y-92394000D01*
X173374000Y-92403000D01*
X173377000Y-92412000D01*
X173381000Y-92421000D01*
X173384000Y-92431000D01*
X173386000Y-92440000D01*
X173388000Y-92450000D01*
X173389000Y-92460000D01*
X173390000Y-92470000D01*
X173390000Y-92480000D01*
X173390000Y-92490000D01*
X173389000Y-92500000D01*
X173388000Y-92510000D01*
X173386000Y-92520000D01*
X173384000Y-92529000D01*
X173381000Y-92539000D01*
X173377000Y-92548000D01*
X173374000Y-92557000D01*
X173369000Y-92566000D01*
X173365000Y-92575000D01*
X173359000Y-92583000D01*
X173354000Y-92592000D01*
X173348000Y-92600000D01*
X173341000Y-92607000D01*
X173334000Y-92614000D01*
X173327000Y-92621000D01*
X173320000Y-92628000D01*
X173312000Y-92634000D01*
X173303000Y-92639000D01*
X173295000Y-92645000D01*
X173286000Y-92649000D01*
X173277000Y-92654000D01*
X173268000Y-92657000D01*
X173259000Y-92661000D01*
X173249000Y-92664000D01*
X173240000Y-92666000D01*
X173230000Y-92668000D01*
X173220000Y-92669000D01*
X173210000Y-92670000D01*
X173200000Y-92670000D01*
X172840000Y-92670000D01*
X172830000Y-92670000D01*
X172820000Y-92669000D01*
X172810000Y-92668000D01*
X172800000Y-92666000D01*
X172791000Y-92664000D01*
X172781000Y-92661000D01*
X172772000Y-92657000D01*
X172763000Y-92654000D01*
X172754000Y-92649000D01*
X172745000Y-92645000D01*
X172737000Y-92639000D01*
X172728000Y-92634000D01*
X172720000Y-92628000D01*
X172713000Y-92621000D01*
X172706000Y-92614000D01*
X172699000Y-92607000D01*
X172692000Y-92600000D01*
X172686000Y-92592000D01*
X172681000Y-92583000D01*
X172675000Y-92575000D01*
X172671000Y-92566000D01*
X172666000Y-92557000D01*
X172663000Y-92548000D01*
X172659000Y-92539000D01*
X172656000Y-92529000D01*
X172654000Y-92520000D01*
X172652000Y-92510000D01*
X172651000Y-92500000D01*
X172650000Y-92490000D01*
X172650000Y-92480000D01*
X172650000Y-92470000D01*
X172651000Y-92460000D01*
X172652000Y-92450000D01*
X172654000Y-92440000D01*
X172656000Y-92431000D01*
X172659000Y-92421000D01*
X172663000Y-92412000D01*
X172666000Y-92403000D01*
X172671000Y-92394000D01*
X172675000Y-92385000D01*
X172681000Y-92377000D01*
X172686000Y-92368000D01*
X172692000Y-92360000D01*
X172699000Y-92353000D01*
X172706000Y-92346000D01*
X172713000Y-92339000D01*
X172720000Y-92332000D01*
X172728000Y-92326000D01*
X172737000Y-92321000D01*
X172745000Y-92315000D01*
X172754000Y-92311000D01*
X172763000Y-92306000D01*
X172772000Y-92303000D01*
X172781000Y-92299000D01*
X172791000Y-92296000D01*
X172800000Y-92294000D01*
X172810000Y-92292000D01*
X172820000Y-92291000D01*
X172830000Y-92290000D01*
X172840000Y-92290000D01*
X173200000Y-92290000D01*
X173210000Y-92290000D01*
X173220000Y-92291000D01*
G36*
X173220000Y-92291000D02*
G01*
X173230000Y-92292000D01*
X173240000Y-92294000D01*
X173249000Y-92296000D01*
X173259000Y-92299000D01*
X173268000Y-92303000D01*
X173277000Y-92306000D01*
X173286000Y-92311000D01*
X173295000Y-92315000D01*
X173303000Y-92321000D01*
X173312000Y-92326000D01*
X173320000Y-92332000D01*
X173327000Y-92339000D01*
X173334000Y-92346000D01*
X173341000Y-92353000D01*
X173348000Y-92360000D01*
X173354000Y-92368000D01*
X173359000Y-92377000D01*
X173365000Y-92385000D01*
X173369000Y-92394000D01*
X173374000Y-92403000D01*
X173377000Y-92412000D01*
X173381000Y-92421000D01*
X173384000Y-92431000D01*
X173386000Y-92440000D01*
X173388000Y-92450000D01*
X173389000Y-92460000D01*
X173390000Y-92470000D01*
X173390000Y-92480000D01*
X173390000Y-92490000D01*
X173389000Y-92500000D01*
X173388000Y-92510000D01*
X173386000Y-92520000D01*
X173384000Y-92529000D01*
X173381000Y-92539000D01*
X173377000Y-92548000D01*
X173374000Y-92557000D01*
X173369000Y-92566000D01*
X173365000Y-92575000D01*
X173359000Y-92583000D01*
X173354000Y-92592000D01*
X173348000Y-92600000D01*
X173341000Y-92607000D01*
X173334000Y-92614000D01*
X173327000Y-92621000D01*
X173320000Y-92628000D01*
X173312000Y-92634000D01*
X173303000Y-92639000D01*
X173295000Y-92645000D01*
X173286000Y-92649000D01*
X173277000Y-92654000D01*
X173268000Y-92657000D01*
X173259000Y-92661000D01*
X173249000Y-92664000D01*
X173240000Y-92666000D01*
X173230000Y-92668000D01*
X173220000Y-92669000D01*
X173210000Y-92670000D01*
X173200000Y-92670000D01*
X172840000Y-92670000D01*
X172830000Y-92670000D01*
X172820000Y-92669000D01*
X172810000Y-92668000D01*
X172800000Y-92666000D01*
X172791000Y-92664000D01*
X172781000Y-92661000D01*
X172772000Y-92657000D01*
X172763000Y-92654000D01*
X172754000Y-92649000D01*
X172745000Y-92645000D01*
X172737000Y-92639000D01*
X172728000Y-92634000D01*
X172720000Y-92628000D01*
X172713000Y-92621000D01*
X172706000Y-92614000D01*
X172699000Y-92607000D01*
X172692000Y-92600000D01*
X172686000Y-92592000D01*
X172681000Y-92583000D01*
X172675000Y-92575000D01*
X172671000Y-92566000D01*
X172666000Y-92557000D01*
X172663000Y-92548000D01*
X172659000Y-92539000D01*
X172656000Y-92529000D01*
X172654000Y-92520000D01*
X172652000Y-92510000D01*
X172651000Y-92500000D01*
X172650000Y-92490000D01*
X172650000Y-92480000D01*
X172650000Y-92470000D01*
X172651000Y-92460000D01*
X172652000Y-92450000D01*
X172654000Y-92440000D01*
X172656000Y-92431000D01*
X172659000Y-92421000D01*
X172663000Y-92412000D01*
X172666000Y-92403000D01*
X172671000Y-92394000D01*
X172675000Y-92385000D01*
X172681000Y-92377000D01*
X172686000Y-92368000D01*
X172692000Y-92360000D01*
X172699000Y-92353000D01*
X172706000Y-92346000D01*
X172713000Y-92339000D01*
X172720000Y-92332000D01*
X172728000Y-92326000D01*
X172737000Y-92321000D01*
X172745000Y-92315000D01*
X172754000Y-92311000D01*
X172763000Y-92306000D01*
X172772000Y-92303000D01*
X172781000Y-92299000D01*
X172791000Y-92296000D01*
X172800000Y-92294000D01*
X172810000Y-92292000D01*
X172820000Y-92291000D01*
X172830000Y-92290000D01*
X172840000Y-92290000D01*
X173200000Y-92290000D01*
X173210000Y-92290000D01*
X173220000Y-92291000D01*
G37*
X173220000Y-91791000D02*
X173230000Y-91792000D01*
X173240000Y-91794000D01*
X173249000Y-91796000D01*
X173259000Y-91799000D01*
X173268000Y-91803000D01*
X173277000Y-91806000D01*
X173286000Y-91811000D01*
X173295000Y-91815000D01*
X173303000Y-91821000D01*
X173312000Y-91826000D01*
X173320000Y-91832000D01*
X173327000Y-91839000D01*
X173334000Y-91846000D01*
X173341000Y-91853000D01*
X173348000Y-91860000D01*
X173354000Y-91868000D01*
X173359000Y-91877000D01*
X173365000Y-91885000D01*
X173369000Y-91894000D01*
X173374000Y-91903000D01*
X173377000Y-91912000D01*
X173381000Y-91921000D01*
X173384000Y-91931000D01*
X173386000Y-91940000D01*
X173388000Y-91950000D01*
X173389000Y-91960000D01*
X173390000Y-91970000D01*
X173390000Y-91980000D01*
X173390000Y-91990000D01*
X173389000Y-92000000D01*
X173388000Y-92010000D01*
X173386000Y-92020000D01*
X173384000Y-92029000D01*
X173381000Y-92039000D01*
X173377000Y-92048000D01*
X173374000Y-92057000D01*
X173369000Y-92066000D01*
X173365000Y-92075000D01*
X173359000Y-92083000D01*
X173354000Y-92092000D01*
X173348000Y-92100000D01*
X173341000Y-92107000D01*
X173334000Y-92114000D01*
X173327000Y-92121000D01*
X173320000Y-92128000D01*
X173312000Y-92134000D01*
X173303000Y-92139000D01*
X173295000Y-92145000D01*
X173286000Y-92149000D01*
X173277000Y-92154000D01*
X173268000Y-92157000D01*
X173259000Y-92161000D01*
X173249000Y-92164000D01*
X173240000Y-92166000D01*
X173230000Y-92168000D01*
X173220000Y-92169000D01*
X173210000Y-92170000D01*
X173200000Y-92170000D01*
X172840000Y-92170000D01*
X172830000Y-92170000D01*
X172820000Y-92169000D01*
X172810000Y-92168000D01*
X172800000Y-92166000D01*
X172791000Y-92164000D01*
X172781000Y-92161000D01*
X172772000Y-92157000D01*
X172763000Y-92154000D01*
X172754000Y-92149000D01*
X172745000Y-92145000D01*
X172737000Y-92139000D01*
X172728000Y-92134000D01*
X172720000Y-92128000D01*
X172713000Y-92121000D01*
X172706000Y-92114000D01*
X172699000Y-92107000D01*
X172692000Y-92100000D01*
X172686000Y-92092000D01*
X172681000Y-92083000D01*
X172675000Y-92075000D01*
X172671000Y-92066000D01*
X172666000Y-92057000D01*
X172663000Y-92048000D01*
X172659000Y-92039000D01*
X172656000Y-92029000D01*
X172654000Y-92020000D01*
X172652000Y-92010000D01*
X172651000Y-92000000D01*
X172650000Y-91990000D01*
X172650000Y-91980000D01*
X172650000Y-91970000D01*
X172651000Y-91960000D01*
X172652000Y-91950000D01*
X172654000Y-91940000D01*
X172656000Y-91931000D01*
X172659000Y-91921000D01*
X172663000Y-91912000D01*
X172666000Y-91903000D01*
X172671000Y-91894000D01*
X172675000Y-91885000D01*
X172681000Y-91877000D01*
X172686000Y-91868000D01*
X172692000Y-91860000D01*
X172699000Y-91853000D01*
X172706000Y-91846000D01*
X172713000Y-91839000D01*
X172720000Y-91832000D01*
X172728000Y-91826000D01*
X172737000Y-91821000D01*
X172745000Y-91815000D01*
X172754000Y-91811000D01*
X172763000Y-91806000D01*
X172772000Y-91803000D01*
X172781000Y-91799000D01*
X172791000Y-91796000D01*
X172800000Y-91794000D01*
X172810000Y-91792000D01*
X172820000Y-91791000D01*
X172830000Y-91790000D01*
X172840000Y-91790000D01*
X173200000Y-91790000D01*
X173210000Y-91790000D01*
X173220000Y-91791000D01*
G36*
X173220000Y-91791000D02*
G01*
X173230000Y-91792000D01*
X173240000Y-91794000D01*
X173249000Y-91796000D01*
X173259000Y-91799000D01*
X173268000Y-91803000D01*
X173277000Y-91806000D01*
X173286000Y-91811000D01*
X173295000Y-91815000D01*
X173303000Y-91821000D01*
X173312000Y-91826000D01*
X173320000Y-91832000D01*
X173327000Y-91839000D01*
X173334000Y-91846000D01*
X173341000Y-91853000D01*
X173348000Y-91860000D01*
X173354000Y-91868000D01*
X173359000Y-91877000D01*
X173365000Y-91885000D01*
X173369000Y-91894000D01*
X173374000Y-91903000D01*
X173377000Y-91912000D01*
X173381000Y-91921000D01*
X173384000Y-91931000D01*
X173386000Y-91940000D01*
X173388000Y-91950000D01*
X173389000Y-91960000D01*
X173390000Y-91970000D01*
X173390000Y-91980000D01*
X173390000Y-91990000D01*
X173389000Y-92000000D01*
X173388000Y-92010000D01*
X173386000Y-92020000D01*
X173384000Y-92029000D01*
X173381000Y-92039000D01*
X173377000Y-92048000D01*
X173374000Y-92057000D01*
X173369000Y-92066000D01*
X173365000Y-92075000D01*
X173359000Y-92083000D01*
X173354000Y-92092000D01*
X173348000Y-92100000D01*
X173341000Y-92107000D01*
X173334000Y-92114000D01*
X173327000Y-92121000D01*
X173320000Y-92128000D01*
X173312000Y-92134000D01*
X173303000Y-92139000D01*
X173295000Y-92145000D01*
X173286000Y-92149000D01*
X173277000Y-92154000D01*
X173268000Y-92157000D01*
X173259000Y-92161000D01*
X173249000Y-92164000D01*
X173240000Y-92166000D01*
X173230000Y-92168000D01*
X173220000Y-92169000D01*
X173210000Y-92170000D01*
X173200000Y-92170000D01*
X172840000Y-92170000D01*
X172830000Y-92170000D01*
X172820000Y-92169000D01*
X172810000Y-92168000D01*
X172800000Y-92166000D01*
X172791000Y-92164000D01*
X172781000Y-92161000D01*
X172772000Y-92157000D01*
X172763000Y-92154000D01*
X172754000Y-92149000D01*
X172745000Y-92145000D01*
X172737000Y-92139000D01*
X172728000Y-92134000D01*
X172720000Y-92128000D01*
X172713000Y-92121000D01*
X172706000Y-92114000D01*
X172699000Y-92107000D01*
X172692000Y-92100000D01*
X172686000Y-92092000D01*
X172681000Y-92083000D01*
X172675000Y-92075000D01*
X172671000Y-92066000D01*
X172666000Y-92057000D01*
X172663000Y-92048000D01*
X172659000Y-92039000D01*
X172656000Y-92029000D01*
X172654000Y-92020000D01*
X172652000Y-92010000D01*
X172651000Y-92000000D01*
X172650000Y-91990000D01*
X172650000Y-91980000D01*
X172650000Y-91970000D01*
X172651000Y-91960000D01*
X172652000Y-91950000D01*
X172654000Y-91940000D01*
X172656000Y-91931000D01*
X172659000Y-91921000D01*
X172663000Y-91912000D01*
X172666000Y-91903000D01*
X172671000Y-91894000D01*
X172675000Y-91885000D01*
X172681000Y-91877000D01*
X172686000Y-91868000D01*
X172692000Y-91860000D01*
X172699000Y-91853000D01*
X172706000Y-91846000D01*
X172713000Y-91839000D01*
X172720000Y-91832000D01*
X172728000Y-91826000D01*
X172737000Y-91821000D01*
X172745000Y-91815000D01*
X172754000Y-91811000D01*
X172763000Y-91806000D01*
X172772000Y-91803000D01*
X172781000Y-91799000D01*
X172791000Y-91796000D01*
X172800000Y-91794000D01*
X172810000Y-91792000D01*
X172820000Y-91791000D01*
X172830000Y-91790000D01*
X172840000Y-91790000D01*
X173200000Y-91790000D01*
X173210000Y-91790000D01*
X173220000Y-91791000D01*
G37*
X173220000Y-91291000D02*
X173230000Y-91292000D01*
X173240000Y-91294000D01*
X173249000Y-91296000D01*
X173259000Y-91299000D01*
X173268000Y-91303000D01*
X173277000Y-91306000D01*
X173286000Y-91311000D01*
X173295000Y-91315000D01*
X173303000Y-91321000D01*
X173312000Y-91326000D01*
X173320000Y-91332000D01*
X173327000Y-91339000D01*
X173334000Y-91346000D01*
X173341000Y-91353000D01*
X173348000Y-91360000D01*
X173354000Y-91368000D01*
X173359000Y-91377000D01*
X173365000Y-91385000D01*
X173369000Y-91394000D01*
X173374000Y-91403000D01*
X173377000Y-91412000D01*
X173381000Y-91421000D01*
X173384000Y-91431000D01*
X173386000Y-91440000D01*
X173388000Y-91450000D01*
X173389000Y-91460000D01*
X173390000Y-91470000D01*
X173390000Y-91480000D01*
X173390000Y-91490000D01*
X173389000Y-91500000D01*
X173388000Y-91510000D01*
X173386000Y-91520000D01*
X173384000Y-91529000D01*
X173381000Y-91539000D01*
X173377000Y-91548000D01*
X173374000Y-91557000D01*
X173369000Y-91566000D01*
X173365000Y-91575000D01*
X173359000Y-91583000D01*
X173354000Y-91592000D01*
X173348000Y-91600000D01*
X173341000Y-91607000D01*
X173334000Y-91614000D01*
X173327000Y-91621000D01*
X173320000Y-91628000D01*
X173312000Y-91634000D01*
X173303000Y-91639000D01*
X173295000Y-91645000D01*
X173286000Y-91649000D01*
X173277000Y-91654000D01*
X173268000Y-91657000D01*
X173259000Y-91661000D01*
X173249000Y-91664000D01*
X173240000Y-91666000D01*
X173230000Y-91668000D01*
X173220000Y-91669000D01*
X173210000Y-91670000D01*
X173200000Y-91670000D01*
X172840000Y-91670000D01*
X172830000Y-91670000D01*
X172820000Y-91669000D01*
X172810000Y-91668000D01*
X172800000Y-91666000D01*
X172791000Y-91664000D01*
X172781000Y-91661000D01*
X172772000Y-91657000D01*
X172763000Y-91654000D01*
X172754000Y-91649000D01*
X172745000Y-91645000D01*
X172737000Y-91639000D01*
X172728000Y-91634000D01*
X172720000Y-91628000D01*
X172713000Y-91621000D01*
X172706000Y-91614000D01*
X172699000Y-91607000D01*
X172692000Y-91600000D01*
X172686000Y-91592000D01*
X172681000Y-91583000D01*
X172675000Y-91575000D01*
X172671000Y-91566000D01*
X172666000Y-91557000D01*
X172663000Y-91548000D01*
X172659000Y-91539000D01*
X172656000Y-91529000D01*
X172654000Y-91520000D01*
X172652000Y-91510000D01*
X172651000Y-91500000D01*
X172650000Y-91490000D01*
X172650000Y-91480000D01*
X172650000Y-91470000D01*
X172651000Y-91460000D01*
X172652000Y-91450000D01*
X172654000Y-91440000D01*
X172656000Y-91431000D01*
X172659000Y-91421000D01*
X172663000Y-91412000D01*
X172666000Y-91403000D01*
X172671000Y-91394000D01*
X172675000Y-91385000D01*
X172681000Y-91377000D01*
X172686000Y-91368000D01*
X172692000Y-91360000D01*
X172699000Y-91353000D01*
X172706000Y-91346000D01*
X172713000Y-91339000D01*
X172720000Y-91332000D01*
X172728000Y-91326000D01*
X172737000Y-91321000D01*
X172745000Y-91315000D01*
X172754000Y-91311000D01*
X172763000Y-91306000D01*
X172772000Y-91303000D01*
X172781000Y-91299000D01*
X172791000Y-91296000D01*
X172800000Y-91294000D01*
X172810000Y-91292000D01*
X172820000Y-91291000D01*
X172830000Y-91290000D01*
X172840000Y-91290000D01*
X173200000Y-91290000D01*
X173210000Y-91290000D01*
X173220000Y-91291000D01*
G36*
X173220000Y-91291000D02*
G01*
X173230000Y-91292000D01*
X173240000Y-91294000D01*
X173249000Y-91296000D01*
X173259000Y-91299000D01*
X173268000Y-91303000D01*
X173277000Y-91306000D01*
X173286000Y-91311000D01*
X173295000Y-91315000D01*
X173303000Y-91321000D01*
X173312000Y-91326000D01*
X173320000Y-91332000D01*
X173327000Y-91339000D01*
X173334000Y-91346000D01*
X173341000Y-91353000D01*
X173348000Y-91360000D01*
X173354000Y-91368000D01*
X173359000Y-91377000D01*
X173365000Y-91385000D01*
X173369000Y-91394000D01*
X173374000Y-91403000D01*
X173377000Y-91412000D01*
X173381000Y-91421000D01*
X173384000Y-91431000D01*
X173386000Y-91440000D01*
X173388000Y-91450000D01*
X173389000Y-91460000D01*
X173390000Y-91470000D01*
X173390000Y-91480000D01*
X173390000Y-91490000D01*
X173389000Y-91500000D01*
X173388000Y-91510000D01*
X173386000Y-91520000D01*
X173384000Y-91529000D01*
X173381000Y-91539000D01*
X173377000Y-91548000D01*
X173374000Y-91557000D01*
X173369000Y-91566000D01*
X173365000Y-91575000D01*
X173359000Y-91583000D01*
X173354000Y-91592000D01*
X173348000Y-91600000D01*
X173341000Y-91607000D01*
X173334000Y-91614000D01*
X173327000Y-91621000D01*
X173320000Y-91628000D01*
X173312000Y-91634000D01*
X173303000Y-91639000D01*
X173295000Y-91645000D01*
X173286000Y-91649000D01*
X173277000Y-91654000D01*
X173268000Y-91657000D01*
X173259000Y-91661000D01*
X173249000Y-91664000D01*
X173240000Y-91666000D01*
X173230000Y-91668000D01*
X173220000Y-91669000D01*
X173210000Y-91670000D01*
X173200000Y-91670000D01*
X172840000Y-91670000D01*
X172830000Y-91670000D01*
X172820000Y-91669000D01*
X172810000Y-91668000D01*
X172800000Y-91666000D01*
X172791000Y-91664000D01*
X172781000Y-91661000D01*
X172772000Y-91657000D01*
X172763000Y-91654000D01*
X172754000Y-91649000D01*
X172745000Y-91645000D01*
X172737000Y-91639000D01*
X172728000Y-91634000D01*
X172720000Y-91628000D01*
X172713000Y-91621000D01*
X172706000Y-91614000D01*
X172699000Y-91607000D01*
X172692000Y-91600000D01*
X172686000Y-91592000D01*
X172681000Y-91583000D01*
X172675000Y-91575000D01*
X172671000Y-91566000D01*
X172666000Y-91557000D01*
X172663000Y-91548000D01*
X172659000Y-91539000D01*
X172656000Y-91529000D01*
X172654000Y-91520000D01*
X172652000Y-91510000D01*
X172651000Y-91500000D01*
X172650000Y-91490000D01*
X172650000Y-91480000D01*
X172650000Y-91470000D01*
X172651000Y-91460000D01*
X172652000Y-91450000D01*
X172654000Y-91440000D01*
X172656000Y-91431000D01*
X172659000Y-91421000D01*
X172663000Y-91412000D01*
X172666000Y-91403000D01*
X172671000Y-91394000D01*
X172675000Y-91385000D01*
X172681000Y-91377000D01*
X172686000Y-91368000D01*
X172692000Y-91360000D01*
X172699000Y-91353000D01*
X172706000Y-91346000D01*
X172713000Y-91339000D01*
X172720000Y-91332000D01*
X172728000Y-91326000D01*
X172737000Y-91321000D01*
X172745000Y-91315000D01*
X172754000Y-91311000D01*
X172763000Y-91306000D01*
X172772000Y-91303000D01*
X172781000Y-91299000D01*
X172791000Y-91296000D01*
X172800000Y-91294000D01*
X172810000Y-91292000D01*
X172820000Y-91291000D01*
X172830000Y-91290000D01*
X172840000Y-91290000D01*
X173200000Y-91290000D01*
X173210000Y-91290000D01*
X173220000Y-91291000D01*
G37*
X173220000Y-90791000D02*
X173230000Y-90792000D01*
X173240000Y-90794000D01*
X173249000Y-90796000D01*
X173259000Y-90799000D01*
X173268000Y-90803000D01*
X173277000Y-90806000D01*
X173286000Y-90811000D01*
X173295000Y-90815000D01*
X173303000Y-90821000D01*
X173312000Y-90826000D01*
X173320000Y-90832000D01*
X173327000Y-90839000D01*
X173334000Y-90846000D01*
X173341000Y-90853000D01*
X173348000Y-90860000D01*
X173354000Y-90868000D01*
X173359000Y-90877000D01*
X173365000Y-90885000D01*
X173369000Y-90894000D01*
X173374000Y-90903000D01*
X173377000Y-90912000D01*
X173381000Y-90921000D01*
X173384000Y-90931000D01*
X173386000Y-90940000D01*
X173388000Y-90950000D01*
X173389000Y-90960000D01*
X173390000Y-90970000D01*
X173390000Y-90980000D01*
X173390000Y-90990000D01*
X173389000Y-91000000D01*
X173388000Y-91010000D01*
X173386000Y-91020000D01*
X173384000Y-91029000D01*
X173381000Y-91039000D01*
X173377000Y-91048000D01*
X173374000Y-91057000D01*
X173369000Y-91066000D01*
X173365000Y-91075000D01*
X173359000Y-91083000D01*
X173354000Y-91092000D01*
X173348000Y-91100000D01*
X173341000Y-91107000D01*
X173334000Y-91114000D01*
X173327000Y-91121000D01*
X173320000Y-91128000D01*
X173312000Y-91134000D01*
X173303000Y-91139000D01*
X173295000Y-91145000D01*
X173286000Y-91149000D01*
X173277000Y-91154000D01*
X173268000Y-91157000D01*
X173259000Y-91161000D01*
X173249000Y-91164000D01*
X173240000Y-91166000D01*
X173230000Y-91168000D01*
X173220000Y-91169000D01*
X173210000Y-91170000D01*
X173200000Y-91170000D01*
X172840000Y-91170000D01*
X172830000Y-91170000D01*
X172820000Y-91169000D01*
X172810000Y-91168000D01*
X172800000Y-91166000D01*
X172791000Y-91164000D01*
X172781000Y-91161000D01*
X172772000Y-91157000D01*
X172763000Y-91154000D01*
X172754000Y-91149000D01*
X172745000Y-91145000D01*
X172737000Y-91139000D01*
X172728000Y-91134000D01*
X172720000Y-91128000D01*
X172713000Y-91121000D01*
X172706000Y-91114000D01*
X172699000Y-91107000D01*
X172692000Y-91100000D01*
X172686000Y-91092000D01*
X172681000Y-91083000D01*
X172675000Y-91075000D01*
X172671000Y-91066000D01*
X172666000Y-91057000D01*
X172663000Y-91048000D01*
X172659000Y-91039000D01*
X172656000Y-91029000D01*
X172654000Y-91020000D01*
X172652000Y-91010000D01*
X172651000Y-91000000D01*
X172650000Y-90990000D01*
X172650000Y-90980000D01*
X172650000Y-90970000D01*
X172651000Y-90960000D01*
X172652000Y-90950000D01*
X172654000Y-90940000D01*
X172656000Y-90931000D01*
X172659000Y-90921000D01*
X172663000Y-90912000D01*
X172666000Y-90903000D01*
X172671000Y-90894000D01*
X172675000Y-90885000D01*
X172681000Y-90877000D01*
X172686000Y-90868000D01*
X172692000Y-90860000D01*
X172699000Y-90853000D01*
X172706000Y-90846000D01*
X172713000Y-90839000D01*
X172720000Y-90832000D01*
X172728000Y-90826000D01*
X172737000Y-90821000D01*
X172745000Y-90815000D01*
X172754000Y-90811000D01*
X172763000Y-90806000D01*
X172772000Y-90803000D01*
X172781000Y-90799000D01*
X172791000Y-90796000D01*
X172800000Y-90794000D01*
X172810000Y-90792000D01*
X172820000Y-90791000D01*
X172830000Y-90790000D01*
X172840000Y-90790000D01*
X173200000Y-90790000D01*
X173210000Y-90790000D01*
X173220000Y-90791000D01*
G36*
X173220000Y-90791000D02*
G01*
X173230000Y-90792000D01*
X173240000Y-90794000D01*
X173249000Y-90796000D01*
X173259000Y-90799000D01*
X173268000Y-90803000D01*
X173277000Y-90806000D01*
X173286000Y-90811000D01*
X173295000Y-90815000D01*
X173303000Y-90821000D01*
X173312000Y-90826000D01*
X173320000Y-90832000D01*
X173327000Y-90839000D01*
X173334000Y-90846000D01*
X173341000Y-90853000D01*
X173348000Y-90860000D01*
X173354000Y-90868000D01*
X173359000Y-90877000D01*
X173365000Y-90885000D01*
X173369000Y-90894000D01*
X173374000Y-90903000D01*
X173377000Y-90912000D01*
X173381000Y-90921000D01*
X173384000Y-90931000D01*
X173386000Y-90940000D01*
X173388000Y-90950000D01*
X173389000Y-90960000D01*
X173390000Y-90970000D01*
X173390000Y-90980000D01*
X173390000Y-90990000D01*
X173389000Y-91000000D01*
X173388000Y-91010000D01*
X173386000Y-91020000D01*
X173384000Y-91029000D01*
X173381000Y-91039000D01*
X173377000Y-91048000D01*
X173374000Y-91057000D01*
X173369000Y-91066000D01*
X173365000Y-91075000D01*
X173359000Y-91083000D01*
X173354000Y-91092000D01*
X173348000Y-91100000D01*
X173341000Y-91107000D01*
X173334000Y-91114000D01*
X173327000Y-91121000D01*
X173320000Y-91128000D01*
X173312000Y-91134000D01*
X173303000Y-91139000D01*
X173295000Y-91145000D01*
X173286000Y-91149000D01*
X173277000Y-91154000D01*
X173268000Y-91157000D01*
X173259000Y-91161000D01*
X173249000Y-91164000D01*
X173240000Y-91166000D01*
X173230000Y-91168000D01*
X173220000Y-91169000D01*
X173210000Y-91170000D01*
X173200000Y-91170000D01*
X172840000Y-91170000D01*
X172830000Y-91170000D01*
X172820000Y-91169000D01*
X172810000Y-91168000D01*
X172800000Y-91166000D01*
X172791000Y-91164000D01*
X172781000Y-91161000D01*
X172772000Y-91157000D01*
X172763000Y-91154000D01*
X172754000Y-91149000D01*
X172745000Y-91145000D01*
X172737000Y-91139000D01*
X172728000Y-91134000D01*
X172720000Y-91128000D01*
X172713000Y-91121000D01*
X172706000Y-91114000D01*
X172699000Y-91107000D01*
X172692000Y-91100000D01*
X172686000Y-91092000D01*
X172681000Y-91083000D01*
X172675000Y-91075000D01*
X172671000Y-91066000D01*
X172666000Y-91057000D01*
X172663000Y-91048000D01*
X172659000Y-91039000D01*
X172656000Y-91029000D01*
X172654000Y-91020000D01*
X172652000Y-91010000D01*
X172651000Y-91000000D01*
X172650000Y-90990000D01*
X172650000Y-90980000D01*
X172650000Y-90970000D01*
X172651000Y-90960000D01*
X172652000Y-90950000D01*
X172654000Y-90940000D01*
X172656000Y-90931000D01*
X172659000Y-90921000D01*
X172663000Y-90912000D01*
X172666000Y-90903000D01*
X172671000Y-90894000D01*
X172675000Y-90885000D01*
X172681000Y-90877000D01*
X172686000Y-90868000D01*
X172692000Y-90860000D01*
X172699000Y-90853000D01*
X172706000Y-90846000D01*
X172713000Y-90839000D01*
X172720000Y-90832000D01*
X172728000Y-90826000D01*
X172737000Y-90821000D01*
X172745000Y-90815000D01*
X172754000Y-90811000D01*
X172763000Y-90806000D01*
X172772000Y-90803000D01*
X172781000Y-90799000D01*
X172791000Y-90796000D01*
X172800000Y-90794000D01*
X172810000Y-90792000D01*
X172820000Y-90791000D01*
X172830000Y-90790000D01*
X172840000Y-90790000D01*
X173200000Y-90790000D01*
X173210000Y-90790000D01*
X173220000Y-90791000D01*
G37*
X173220000Y-90291000D02*
X173230000Y-90292000D01*
X173240000Y-90294000D01*
X173249000Y-90296000D01*
X173259000Y-90299000D01*
X173268000Y-90303000D01*
X173277000Y-90306000D01*
X173286000Y-90311000D01*
X173295000Y-90315000D01*
X173303000Y-90321000D01*
X173312000Y-90326000D01*
X173320000Y-90332000D01*
X173327000Y-90339000D01*
X173334000Y-90346000D01*
X173341000Y-90353000D01*
X173348000Y-90360000D01*
X173354000Y-90368000D01*
X173359000Y-90377000D01*
X173365000Y-90385000D01*
X173369000Y-90394000D01*
X173374000Y-90403000D01*
X173377000Y-90412000D01*
X173381000Y-90421000D01*
X173384000Y-90431000D01*
X173386000Y-90440000D01*
X173388000Y-90450000D01*
X173389000Y-90460000D01*
X173390000Y-90470000D01*
X173390000Y-90480000D01*
X173390000Y-90490000D01*
X173389000Y-90500000D01*
X173388000Y-90510000D01*
X173386000Y-90520000D01*
X173384000Y-90529000D01*
X173381000Y-90539000D01*
X173377000Y-90548000D01*
X173374000Y-90557000D01*
X173369000Y-90566000D01*
X173365000Y-90575000D01*
X173359000Y-90583000D01*
X173354000Y-90592000D01*
X173348000Y-90600000D01*
X173341000Y-90607000D01*
X173334000Y-90614000D01*
X173327000Y-90621000D01*
X173320000Y-90628000D01*
X173312000Y-90634000D01*
X173303000Y-90639000D01*
X173295000Y-90645000D01*
X173286000Y-90649000D01*
X173277000Y-90654000D01*
X173268000Y-90657000D01*
X173259000Y-90661000D01*
X173249000Y-90664000D01*
X173240000Y-90666000D01*
X173230000Y-90668000D01*
X173220000Y-90669000D01*
X173210000Y-90670000D01*
X173200000Y-90670000D01*
X172840000Y-90670000D01*
X172830000Y-90670000D01*
X172820000Y-90669000D01*
X172810000Y-90668000D01*
X172800000Y-90666000D01*
X172791000Y-90664000D01*
X172781000Y-90661000D01*
X172772000Y-90657000D01*
X172763000Y-90654000D01*
X172754000Y-90649000D01*
X172745000Y-90645000D01*
X172737000Y-90639000D01*
X172728000Y-90634000D01*
X172720000Y-90628000D01*
X172713000Y-90621000D01*
X172706000Y-90614000D01*
X172699000Y-90607000D01*
X172692000Y-90600000D01*
X172686000Y-90592000D01*
X172681000Y-90583000D01*
X172675000Y-90575000D01*
X172671000Y-90566000D01*
X172666000Y-90557000D01*
X172663000Y-90548000D01*
X172659000Y-90539000D01*
X172656000Y-90529000D01*
X172654000Y-90520000D01*
X172652000Y-90510000D01*
X172651000Y-90500000D01*
X172650000Y-90490000D01*
X172650000Y-90480000D01*
X172650000Y-90470000D01*
X172651000Y-90460000D01*
X172652000Y-90450000D01*
X172654000Y-90440000D01*
X172656000Y-90431000D01*
X172659000Y-90421000D01*
X172663000Y-90412000D01*
X172666000Y-90403000D01*
X172671000Y-90394000D01*
X172675000Y-90385000D01*
X172681000Y-90377000D01*
X172686000Y-90368000D01*
X172692000Y-90360000D01*
X172699000Y-90353000D01*
X172706000Y-90346000D01*
X172713000Y-90339000D01*
X172720000Y-90332000D01*
X172728000Y-90326000D01*
X172737000Y-90321000D01*
X172745000Y-90315000D01*
X172754000Y-90311000D01*
X172763000Y-90306000D01*
X172772000Y-90303000D01*
X172781000Y-90299000D01*
X172791000Y-90296000D01*
X172800000Y-90294000D01*
X172810000Y-90292000D01*
X172820000Y-90291000D01*
X172830000Y-90290000D01*
X172840000Y-90290000D01*
X173200000Y-90290000D01*
X173210000Y-90290000D01*
X173220000Y-90291000D01*
G36*
X173220000Y-90291000D02*
G01*
X173230000Y-90292000D01*
X173240000Y-90294000D01*
X173249000Y-90296000D01*
X173259000Y-90299000D01*
X173268000Y-90303000D01*
X173277000Y-90306000D01*
X173286000Y-90311000D01*
X173295000Y-90315000D01*
X173303000Y-90321000D01*
X173312000Y-90326000D01*
X173320000Y-90332000D01*
X173327000Y-90339000D01*
X173334000Y-90346000D01*
X173341000Y-90353000D01*
X173348000Y-90360000D01*
X173354000Y-90368000D01*
X173359000Y-90377000D01*
X173365000Y-90385000D01*
X173369000Y-90394000D01*
X173374000Y-90403000D01*
X173377000Y-90412000D01*
X173381000Y-90421000D01*
X173384000Y-90431000D01*
X173386000Y-90440000D01*
X173388000Y-90450000D01*
X173389000Y-90460000D01*
X173390000Y-90470000D01*
X173390000Y-90480000D01*
X173390000Y-90490000D01*
X173389000Y-90500000D01*
X173388000Y-90510000D01*
X173386000Y-90520000D01*
X173384000Y-90529000D01*
X173381000Y-90539000D01*
X173377000Y-90548000D01*
X173374000Y-90557000D01*
X173369000Y-90566000D01*
X173365000Y-90575000D01*
X173359000Y-90583000D01*
X173354000Y-90592000D01*
X173348000Y-90600000D01*
X173341000Y-90607000D01*
X173334000Y-90614000D01*
X173327000Y-90621000D01*
X173320000Y-90628000D01*
X173312000Y-90634000D01*
X173303000Y-90639000D01*
X173295000Y-90645000D01*
X173286000Y-90649000D01*
X173277000Y-90654000D01*
X173268000Y-90657000D01*
X173259000Y-90661000D01*
X173249000Y-90664000D01*
X173240000Y-90666000D01*
X173230000Y-90668000D01*
X173220000Y-90669000D01*
X173210000Y-90670000D01*
X173200000Y-90670000D01*
X172840000Y-90670000D01*
X172830000Y-90670000D01*
X172820000Y-90669000D01*
X172810000Y-90668000D01*
X172800000Y-90666000D01*
X172791000Y-90664000D01*
X172781000Y-90661000D01*
X172772000Y-90657000D01*
X172763000Y-90654000D01*
X172754000Y-90649000D01*
X172745000Y-90645000D01*
X172737000Y-90639000D01*
X172728000Y-90634000D01*
X172720000Y-90628000D01*
X172713000Y-90621000D01*
X172706000Y-90614000D01*
X172699000Y-90607000D01*
X172692000Y-90600000D01*
X172686000Y-90592000D01*
X172681000Y-90583000D01*
X172675000Y-90575000D01*
X172671000Y-90566000D01*
X172666000Y-90557000D01*
X172663000Y-90548000D01*
X172659000Y-90539000D01*
X172656000Y-90529000D01*
X172654000Y-90520000D01*
X172652000Y-90510000D01*
X172651000Y-90500000D01*
X172650000Y-90490000D01*
X172650000Y-90480000D01*
X172650000Y-90470000D01*
X172651000Y-90460000D01*
X172652000Y-90450000D01*
X172654000Y-90440000D01*
X172656000Y-90431000D01*
X172659000Y-90421000D01*
X172663000Y-90412000D01*
X172666000Y-90403000D01*
X172671000Y-90394000D01*
X172675000Y-90385000D01*
X172681000Y-90377000D01*
X172686000Y-90368000D01*
X172692000Y-90360000D01*
X172699000Y-90353000D01*
X172706000Y-90346000D01*
X172713000Y-90339000D01*
X172720000Y-90332000D01*
X172728000Y-90326000D01*
X172737000Y-90321000D01*
X172745000Y-90315000D01*
X172754000Y-90311000D01*
X172763000Y-90306000D01*
X172772000Y-90303000D01*
X172781000Y-90299000D01*
X172791000Y-90296000D01*
X172800000Y-90294000D01*
X172810000Y-90292000D01*
X172820000Y-90291000D01*
X172830000Y-90290000D01*
X172840000Y-90290000D01*
X173200000Y-90290000D01*
X173210000Y-90290000D01*
X173220000Y-90291000D01*
G37*
X173220000Y-89791000D02*
X173230000Y-89792000D01*
X173240000Y-89794000D01*
X173249000Y-89796000D01*
X173259000Y-89799000D01*
X173268000Y-89803000D01*
X173277000Y-89806000D01*
X173286000Y-89811000D01*
X173295000Y-89815000D01*
X173303000Y-89821000D01*
X173312000Y-89826000D01*
X173320000Y-89832000D01*
X173327000Y-89839000D01*
X173334000Y-89846000D01*
X173341000Y-89853000D01*
X173348000Y-89860000D01*
X173354000Y-89868000D01*
X173359000Y-89877000D01*
X173365000Y-89885000D01*
X173369000Y-89894000D01*
X173374000Y-89903000D01*
X173377000Y-89912000D01*
X173381000Y-89921000D01*
X173384000Y-89931000D01*
X173386000Y-89940000D01*
X173388000Y-89950000D01*
X173389000Y-89960000D01*
X173390000Y-89970000D01*
X173390000Y-89980000D01*
X173390000Y-89990000D01*
X173389000Y-90000000D01*
X173388000Y-90010000D01*
X173386000Y-90020000D01*
X173384000Y-90029000D01*
X173381000Y-90039000D01*
X173377000Y-90048000D01*
X173374000Y-90057000D01*
X173369000Y-90066000D01*
X173365000Y-90075000D01*
X173359000Y-90083000D01*
X173354000Y-90092000D01*
X173348000Y-90100000D01*
X173341000Y-90107000D01*
X173334000Y-90114000D01*
X173327000Y-90121000D01*
X173320000Y-90128000D01*
X173312000Y-90134000D01*
X173303000Y-90139000D01*
X173295000Y-90145000D01*
X173286000Y-90149000D01*
X173277000Y-90154000D01*
X173268000Y-90157000D01*
X173259000Y-90161000D01*
X173249000Y-90164000D01*
X173240000Y-90166000D01*
X173230000Y-90168000D01*
X173220000Y-90169000D01*
X173210000Y-90170000D01*
X173200000Y-90170000D01*
X172840000Y-90170000D01*
X172830000Y-90170000D01*
X172820000Y-90169000D01*
X172810000Y-90168000D01*
X172800000Y-90166000D01*
X172791000Y-90164000D01*
X172781000Y-90161000D01*
X172772000Y-90157000D01*
X172763000Y-90154000D01*
X172754000Y-90149000D01*
X172745000Y-90145000D01*
X172737000Y-90139000D01*
X172728000Y-90134000D01*
X172720000Y-90128000D01*
X172713000Y-90121000D01*
X172706000Y-90114000D01*
X172699000Y-90107000D01*
X172692000Y-90100000D01*
X172686000Y-90092000D01*
X172681000Y-90083000D01*
X172675000Y-90075000D01*
X172671000Y-90066000D01*
X172666000Y-90057000D01*
X172663000Y-90048000D01*
X172659000Y-90039000D01*
X172656000Y-90029000D01*
X172654000Y-90020000D01*
X172652000Y-90010000D01*
X172651000Y-90000000D01*
X172650000Y-89990000D01*
X172650000Y-89980000D01*
X172650000Y-89970000D01*
X172651000Y-89960000D01*
X172652000Y-89950000D01*
X172654000Y-89940000D01*
X172656000Y-89931000D01*
X172659000Y-89921000D01*
X172663000Y-89912000D01*
X172666000Y-89903000D01*
X172671000Y-89894000D01*
X172675000Y-89885000D01*
X172681000Y-89877000D01*
X172686000Y-89868000D01*
X172692000Y-89860000D01*
X172699000Y-89853000D01*
X172706000Y-89846000D01*
X172713000Y-89839000D01*
X172720000Y-89832000D01*
X172728000Y-89826000D01*
X172737000Y-89821000D01*
X172745000Y-89815000D01*
X172754000Y-89811000D01*
X172763000Y-89806000D01*
X172772000Y-89803000D01*
X172781000Y-89799000D01*
X172791000Y-89796000D01*
X172800000Y-89794000D01*
X172810000Y-89792000D01*
X172820000Y-89791000D01*
X172830000Y-89790000D01*
X172840000Y-89790000D01*
X173200000Y-89790000D01*
X173210000Y-89790000D01*
X173220000Y-89791000D01*
G36*
X173220000Y-89791000D02*
G01*
X173230000Y-89792000D01*
X173240000Y-89794000D01*
X173249000Y-89796000D01*
X173259000Y-89799000D01*
X173268000Y-89803000D01*
X173277000Y-89806000D01*
X173286000Y-89811000D01*
X173295000Y-89815000D01*
X173303000Y-89821000D01*
X173312000Y-89826000D01*
X173320000Y-89832000D01*
X173327000Y-89839000D01*
X173334000Y-89846000D01*
X173341000Y-89853000D01*
X173348000Y-89860000D01*
X173354000Y-89868000D01*
X173359000Y-89877000D01*
X173365000Y-89885000D01*
X173369000Y-89894000D01*
X173374000Y-89903000D01*
X173377000Y-89912000D01*
X173381000Y-89921000D01*
X173384000Y-89931000D01*
X173386000Y-89940000D01*
X173388000Y-89950000D01*
X173389000Y-89960000D01*
X173390000Y-89970000D01*
X173390000Y-89980000D01*
X173390000Y-89990000D01*
X173389000Y-90000000D01*
X173388000Y-90010000D01*
X173386000Y-90020000D01*
X173384000Y-90029000D01*
X173381000Y-90039000D01*
X173377000Y-90048000D01*
X173374000Y-90057000D01*
X173369000Y-90066000D01*
X173365000Y-90075000D01*
X173359000Y-90083000D01*
X173354000Y-90092000D01*
X173348000Y-90100000D01*
X173341000Y-90107000D01*
X173334000Y-90114000D01*
X173327000Y-90121000D01*
X173320000Y-90128000D01*
X173312000Y-90134000D01*
X173303000Y-90139000D01*
X173295000Y-90145000D01*
X173286000Y-90149000D01*
X173277000Y-90154000D01*
X173268000Y-90157000D01*
X173259000Y-90161000D01*
X173249000Y-90164000D01*
X173240000Y-90166000D01*
X173230000Y-90168000D01*
X173220000Y-90169000D01*
X173210000Y-90170000D01*
X173200000Y-90170000D01*
X172840000Y-90170000D01*
X172830000Y-90170000D01*
X172820000Y-90169000D01*
X172810000Y-90168000D01*
X172800000Y-90166000D01*
X172791000Y-90164000D01*
X172781000Y-90161000D01*
X172772000Y-90157000D01*
X172763000Y-90154000D01*
X172754000Y-90149000D01*
X172745000Y-90145000D01*
X172737000Y-90139000D01*
X172728000Y-90134000D01*
X172720000Y-90128000D01*
X172713000Y-90121000D01*
X172706000Y-90114000D01*
X172699000Y-90107000D01*
X172692000Y-90100000D01*
X172686000Y-90092000D01*
X172681000Y-90083000D01*
X172675000Y-90075000D01*
X172671000Y-90066000D01*
X172666000Y-90057000D01*
X172663000Y-90048000D01*
X172659000Y-90039000D01*
X172656000Y-90029000D01*
X172654000Y-90020000D01*
X172652000Y-90010000D01*
X172651000Y-90000000D01*
X172650000Y-89990000D01*
X172650000Y-89980000D01*
X172650000Y-89970000D01*
X172651000Y-89960000D01*
X172652000Y-89950000D01*
X172654000Y-89940000D01*
X172656000Y-89931000D01*
X172659000Y-89921000D01*
X172663000Y-89912000D01*
X172666000Y-89903000D01*
X172671000Y-89894000D01*
X172675000Y-89885000D01*
X172681000Y-89877000D01*
X172686000Y-89868000D01*
X172692000Y-89860000D01*
X172699000Y-89853000D01*
X172706000Y-89846000D01*
X172713000Y-89839000D01*
X172720000Y-89832000D01*
X172728000Y-89826000D01*
X172737000Y-89821000D01*
X172745000Y-89815000D01*
X172754000Y-89811000D01*
X172763000Y-89806000D01*
X172772000Y-89803000D01*
X172781000Y-89799000D01*
X172791000Y-89796000D01*
X172800000Y-89794000D01*
X172810000Y-89792000D01*
X172820000Y-89791000D01*
X172830000Y-89790000D01*
X172840000Y-89790000D01*
X173200000Y-89790000D01*
X173210000Y-89790000D01*
X173220000Y-89791000D01*
G37*
%TD*%
D11*
%TO.C,R6*%
X181978800Y-86944200D03*
X183628800Y-86944200D03*
%TD*%
%TO.C,R5*%
X181978800Y-85166200D03*
X183628800Y-85166200D03*
%TD*%
D12*
%TO.C,R10*%
X182079400Y-95800000D03*
X180429400Y-95800000D03*
%TD*%
D13*
%TO.C,C3*%
X162850000Y-97900000D03*
X164750000Y-97900000D03*
%TD*%
D14*
%TO.C,Q1*%
X162366600Y-101787600D03*
X162366600Y-101137600D03*
X162366600Y-100487600D03*
X162366600Y-99837600D03*
X156606600Y-99837600D03*
X156606600Y-100487600D03*
X156606600Y-101137600D03*
X156606600Y-101787600D03*
%TD*%
D15*
%TO.C,D1*%
X152958800Y-92331300D03*
X152958800Y-94206300D03*
%TD*%
D16*
%TO.C,C11*%
X172600000Y-102037500D03*
X172600000Y-98962500D03*
%TD*%
D17*
%TO.C,C1*%
X157734000Y-85195400D03*
X157734000Y-82495400D03*
%TD*%
D18*
%TO.C,J1*%
X164965000Y-85223600D03*
D19*
X162945000Y-85223600D03*
D20*
X161715000Y-85223600D03*
D21*
X163965000Y-85223600D03*
D22*
X165985000Y-85223600D03*
D23*
X167215000Y-85223600D03*
D24*
X168785000Y-85143600D03*
X168785000Y-81343600D03*
X160145000Y-85143600D03*
X160145000Y-81343600D03*
%TD*%
D11*
%TO.C,R1*%
X152692600Y-85547200D03*
X154342600Y-85547200D03*
%TD*%
D25*
%TO.C,C10*%
X184830000Y-91570000D03*
X184830000Y-89670000D03*
%TD*%
D26*
%TO.C,RV1*%
X177825400Y-99314000D03*
X180365400Y-99314000D03*
X182905400Y-99314000D03*
%TD*%
D27*
%TO.C,H4*%
X183388000Y-104622600D03*
%TD*%
D25*
%TO.C,C5*%
X170010000Y-91290000D03*
X170010000Y-89390000D03*
%TD*%
D28*
%TO.C,J4*%
X173888400Y-105900000D03*
X173888400Y-107551000D03*
X171348400Y-105900000D03*
X171348400Y-107551000D03*
X168808400Y-105900000D03*
X168808400Y-107551000D03*
%TD*%
D29*
%TO.C,U1*%
X154380000Y-90377500D03*
X155330000Y-90377500D03*
X156280000Y-90377500D03*
X156280000Y-88102500D03*
X154380000Y-88102500D03*
%TD*%
D11*
%TO.C,R7*%
X163405000Y-89830000D03*
X165055000Y-89830000D03*
%TD*%
D30*
%TO.C,D3*%
X160730000Y-87740000D03*
X162930000Y-87740000D03*
%TD*%
D31*
%TO.C,C2*%
X156337000Y-92858600D03*
X156337000Y-95558600D03*
%TD*%
D27*
%TO.C,H1*%
X154432000Y-81788000D03*
%TD*%
D25*
%TO.C,C7*%
X178520000Y-91490000D03*
X178520000Y-89590000D03*
%TD*%
%TO.C,C8*%
X180610000Y-91510000D03*
X180610000Y-89610000D03*
%TD*%
D32*
%TO.C,R2*%
X152374600Y-88887800D03*
X152374600Y-90537800D03*
%TD*%
D25*
%TO.C,C9*%
X182700000Y-91550000D03*
X182700000Y-89650000D03*
%TD*%
D33*
%TO.C,Q2*%
X161325600Y-91137500D03*
X159425600Y-91137500D03*
X160375600Y-93012500D03*
%TD*%
D12*
%TO.C,R11*%
X178955200Y-102819200D03*
X177305200Y-102819200D03*
%TD*%
D34*
%TO.C,L1*%
X171574600Y-84658200D03*
X177624600Y-84658200D03*
%TD*%
D35*
%TO.C,U3*%
X174920000Y-92480000D03*
X174420000Y-92480000D03*
X173920000Y-92480000D03*
X174920000Y-91980000D03*
X174420000Y-91980000D03*
X173920000Y-91980000D03*
X174920000Y-91480000D03*
X174420000Y-91480000D03*
X173920000Y-91480000D03*
X174920000Y-90980000D03*
X174420000Y-90980000D03*
X173920000Y-90980000D03*
X174920000Y-90480000D03*
X174420000Y-90480000D03*
X173920000Y-90480000D03*
%TD*%
D12*
%TO.C,R3*%
X165925000Y-99900000D03*
X164275000Y-99900000D03*
%TD*%
D28*
%TO.C,J2*%
X163080000Y-105920000D03*
X163080000Y-107571000D03*
X160540000Y-105920000D03*
X160540000Y-107571000D03*
%TD*%
D36*
%TO.C,U2*%
X158300000Y-96450000D03*
X158300000Y-97400000D03*
X158300000Y-98350000D03*
X160900000Y-98350000D03*
X160900000Y-97400000D03*
X160900000Y-96450000D03*
%TD*%
D25*
%TO.C,C4*%
X167800000Y-91280000D03*
X167800000Y-89380000D03*
%TD*%
D27*
%TO.C,H3*%
X154432000Y-104622600D03*
%TD*%
%TO.C,H2*%
X183388000Y-81788000D03*
%TD*%
D37*
%TO.C,D2*%
X167290000Y-87700000D03*
X165890000Y-87700000D03*
%TD*%
D38*
%TO.C,C6*%
X178610000Y-95500000D03*
X176710000Y-95500000D03*
%TD*%
D39*
%TO.C,D4*%
X165234800Y-91668600D03*
X163034800Y-91668600D03*
%TD*%
D11*
%TO.C,R4*%
X154242000Y-98221800D03*
X155892000Y-98221800D03*
%TD*%
M02*
