M48
METRIC,TZ
T1C0.200
T2C0.400
T3C0.600
T4C0.800
T5C1.000
T6C2.200
%
G90
G05
T1
X173920Y-90480
X173920Y-90980
X173920Y-91480
X173920Y-91980
X173920Y-92480
X174420Y-90480
X174420Y-90980
X174420Y-91480
X174420Y-91980
X174420Y-92480
X174920Y-90480
X174920Y-90980
X174920Y-91480
X174920Y-91980
X174920Y-92480
T2
X152100Y-103100
X152300Y-97200
X152300Y-99700
X153600Y-101500
X154300Y-86700
X154300Y-95500
X156400Y-79600
X156900Y-103300
X157400Y-105300
X158700Y-80900
X166100Y-89900
X167900Y-86500
X168800Y-88400
X169300Y-102500
X169700Y-94600
X169700Y-97000
X169800Y-99200
X171900Y-81500
X172050Y-93540
X172700Y-95900
X173500Y-87800
X174100Y-94600
X174440Y-88620
X174900Y-99100
X175000Y-96500
X175330Y-87850
X176900Y-81600
X177300Y-101200
X177500Y-93600
X179600Y-88200
X180400Y-101200
X180800Y-80000
X181600Y-88300
X183700Y-88400
X185300Y-88300
X185500Y-83900
T4
X177825Y-99314
X180365Y-99314
X182905Y-99314
T5
X160540Y-105920
X160540Y-107571
X163080Y-105920
X163080Y-107571
X168808Y-105900
X168808Y-107551
X171348Y-105900
X171348Y-107551
X173888Y-105900
X173888Y-107551
T6
X154432Y-81788
X154432Y-104623
X183388Y-81788
X183388Y-104623
T3
G00X160145Y-81644
M15
G01X160145Y-81044
M16
G05
G00X160145Y-85444
M15
G01X160145Y-84844
M16
G05
G00X168785Y-81644
M15
G01X168785Y-81044
M16
G05
G00X168785Y-85444
M15
G01X168785Y-84844
M16
G05
T0
M30
