M48
; DRILL file {KiCad 7.0.9} date Sat Nov 18 02:34:40 2023
; FORMAT={-:-/ absolute / metric / decimal}
; #@! TF.CreationDate,2023-11-18T02:34:40+02:00
; #@! TF.GenerationSoftware,Kicad,Pcbnew,7.0.9
; #@! TF.FileFunction,Plated,1,2,PTH
FMAT,2
METRIC
; #@! TA.AperFunction,Plated,PTH,ComponentDrill
T1C0.200
; #@! TA.AperFunction,Plated,PTH,ViaDrill
T2C0.400
; #@! TA.AperFunction,Plated,PTH,ComponentDrill
T3C0.600
; #@! TA.AperFunction,Plated,PTH,ComponentDrill
T4C0.800
; #@! TA.AperFunction,Plated,PTH,ComponentDrill
T5C1.000
; #@! TA.AperFunction,Plated,PTH,ComponentDrill
T6C2.200
%
G90
G05
T1
X173.92Y-90.48
X173.92Y-90.98
X173.92Y-91.48
X173.92Y-91.98
X173.92Y-92.48
X174.42Y-90.48
X174.42Y-90.98
X174.42Y-91.48
X174.42Y-91.98
X174.42Y-92.48
X174.92Y-90.48
X174.92Y-90.98
X174.92Y-91.48
X174.92Y-91.98
X174.92Y-92.48
T2
X152.1Y-103.1
X152.3Y-97.2
X152.3Y-99.7
X153.6Y-101.5
X154.3Y-86.7
X154.3Y-95.5
X156.4Y-79.6
X156.9Y-103.3
X157.4Y-105.3
X158.7Y-80.9
X166.1Y-89.9
X167.9Y-86.5
X168.8Y-88.4
X169.3Y-102.5
X169.7Y-94.6
X169.7Y-97.0
X169.8Y-99.2
X171.9Y-81.5
X172.05Y-93.54
X172.7Y-95.9
X173.5Y-87.8
X174.1Y-94.6
X174.44Y-88.62
X174.9Y-99.1
X175.0Y-96.5
X175.33Y-87.85
X176.9Y-81.6
X177.3Y-101.2
X177.5Y-93.6
X179.6Y-88.2
X180.4Y-101.2
X180.8Y-80.0
X181.6Y-88.3
X183.7Y-88.4
X185.3Y-88.3
X185.5Y-83.9
T4
X177.825Y-99.314
X180.365Y-99.314
X182.905Y-99.314
T5
X160.54Y-105.92
X160.54Y-107.571
X163.08Y-105.92
X163.08Y-107.571
X168.808Y-105.9
X168.808Y-107.551
X171.348Y-105.9
X171.348Y-107.551
X173.888Y-105.9
X173.888Y-107.551
T6
X154.432Y-81.788
X154.432Y-104.623
X183.388Y-81.788
X183.388Y-104.623
T3
G00X160.145Y-81.644
M15
G01X160.145Y-81.044
M16
G05
G00X160.145Y-85.444
M15
G01X160.145Y-84.844
M16
G05
G00X168.785Y-81.644
M15
G01X168.785Y-81.044
M16
G05
G00X168.785Y-85.444
M15
G01X168.785Y-84.844
M16
G05
T0
M30
