%TF.GenerationSoftware,KiCad,Pcbnew,7.0.9*%
%TF.CreationDate,2023-11-18T02:34:39+02:00*%
%TF.ProjectId,BMS_Buck-Boost,424d535f-4275-4636-9b2d-426f6f73742e,rev?*%
%TF.SameCoordinates,Original*%
%TF.FileFunction,Legend,Bot*%
%TF.FilePolarity,Positive*%
%FSLAX46Y46*%
G04 Gerber Fmt 4.6, Leading zero omitted, Abs format (unit mm)*
G04 Created by KiCad (PCBNEW 7.0.9) date 2023-11-18 02:34:39*
%MOMM*%
%LPD*%
G01*
G04 APERTURE LIST*
%ADD10C,0.200000*%
%ADD11C,0.350000*%
%ADD12O,0.600000X1.200000*%
%ADD13C,0.200000*%
G04 APERTURE END LIST*
D10*
X170580624Y-93212814D02*
X170632707Y-93153290D01*
X170632707Y-93153290D02*
X170729433Y-92974719D01*
X170729433Y-92974719D02*
X170774076Y-92855671D01*
X170774076Y-92855671D02*
X170811279Y-92677100D01*
X170811279Y-92677100D02*
X170833600Y-92379480D01*
X170833600Y-92379480D02*
X170803838Y-92141385D01*
X170803838Y-92141385D02*
X170707112Y-91843766D01*
X170707112Y-91843766D02*
X170625267Y-91665195D01*
X170625267Y-91665195D02*
X170550862Y-91546147D01*
X170550862Y-91546147D02*
X170409493Y-91367576D01*
X170409493Y-91367576D02*
X170342529Y-91308052D01*
X169501755Y-92677100D02*
X169628243Y-92736623D01*
X169628243Y-92736623D02*
X169866339Y-92736623D01*
X169866339Y-92736623D02*
X169977946Y-92677100D01*
X169977946Y-92677100D02*
X170030029Y-92617576D01*
X170030029Y-92617576D02*
X170074672Y-92498528D01*
X170074672Y-92498528D02*
X170030029Y-92141385D01*
X170030029Y-92141385D02*
X169955624Y-92022338D01*
X169955624Y-92022338D02*
X169888660Y-91962814D01*
X169888660Y-91962814D02*
X169762172Y-91903290D01*
X169762172Y-91903290D02*
X169524077Y-91903290D01*
X169524077Y-91903290D02*
X169412469Y-91962814D01*
X169152052Y-93212814D02*
X169085088Y-93153290D01*
X169085088Y-93153290D02*
X168943719Y-92974719D01*
X168943719Y-92974719D02*
X168869314Y-92855671D01*
X168869314Y-92855671D02*
X168787469Y-92677100D01*
X168787469Y-92677100D02*
X168690743Y-92379480D01*
X168690743Y-92379480D02*
X168660981Y-92141385D01*
X168660981Y-92141385D02*
X168683302Y-91843766D01*
X168683302Y-91843766D02*
X168720505Y-91665195D01*
X168720505Y-91665195D02*
X168765148Y-91546147D01*
X168765148Y-91546147D02*
X168861874Y-91367576D01*
X168861874Y-91367576D02*
X168913957Y-91308052D01*
X168162469Y-91486623D02*
X167902053Y-92736623D01*
X167902053Y-92736623D02*
X167329136Y-91486623D01*
X167068719Y-92736623D02*
X166964552Y-91903290D01*
X166912469Y-91486623D02*
X166979433Y-91546147D01*
X166979433Y-91546147D02*
X166927350Y-91605671D01*
X166927350Y-91605671D02*
X166860386Y-91546147D01*
X166860386Y-91546147D02*
X166912469Y-91486623D01*
X166912469Y-91486623D02*
X166927350Y-91605671D01*
X166473481Y-92736623D02*
X166317231Y-91486623D01*
X166294910Y-92260433D02*
X165997290Y-92736623D01*
X165893124Y-91903290D02*
X166428838Y-92379480D01*
X165535981Y-91903290D02*
X165059790Y-91903290D01*
X165305326Y-91486623D02*
X165439255Y-92558052D01*
X165439255Y-92558052D02*
X165394612Y-92677100D01*
X165394612Y-92677100D02*
X165283005Y-92736623D01*
X165283005Y-92736623D02*
X165163957Y-92736623D01*
X164568719Y-92736623D02*
X164680326Y-92677100D01*
X164680326Y-92677100D02*
X164732409Y-92617576D01*
X164732409Y-92617576D02*
X164777052Y-92498528D01*
X164777052Y-92498528D02*
X164732409Y-92141385D01*
X164732409Y-92141385D02*
X164658004Y-92022338D01*
X164658004Y-92022338D02*
X164591040Y-91962814D01*
X164591040Y-91962814D02*
X164464552Y-91903290D01*
X164464552Y-91903290D02*
X164285980Y-91903290D01*
X164285980Y-91903290D02*
X164174373Y-91962814D01*
X164174373Y-91962814D02*
X164122290Y-92022338D01*
X164122290Y-92022338D02*
X164077647Y-92141385D01*
X164077647Y-92141385D02*
X164122290Y-92498528D01*
X164122290Y-92498528D02*
X164196695Y-92617576D01*
X164196695Y-92617576D02*
X164263659Y-92677100D01*
X164263659Y-92677100D02*
X164390147Y-92736623D01*
X164390147Y-92736623D02*
X164568719Y-92736623D01*
X163616338Y-92736623D02*
X163512171Y-91903290D01*
X163541933Y-92141385D02*
X163467528Y-92022338D01*
X163467528Y-92022338D02*
X163400564Y-91962814D01*
X163400564Y-91962814D02*
X163274076Y-91903290D01*
X163274076Y-91903290D02*
X163155028Y-91903290D01*
X161942230Y-92677100D02*
X161771099Y-92736623D01*
X161771099Y-92736623D02*
X161473480Y-92736623D01*
X161473480Y-92736623D02*
X161346992Y-92677100D01*
X161346992Y-92677100D02*
X161280028Y-92617576D01*
X161280028Y-92617576D02*
X161205623Y-92498528D01*
X161205623Y-92498528D02*
X161190742Y-92379480D01*
X161190742Y-92379480D02*
X161235385Y-92260433D01*
X161235385Y-92260433D02*
X161287468Y-92200909D01*
X161287468Y-92200909D02*
X161399076Y-92141385D01*
X161399076Y-92141385D02*
X161629730Y-92081861D01*
X161629730Y-92081861D02*
X161741337Y-92022338D01*
X161741337Y-92022338D02*
X161793421Y-91962814D01*
X161793421Y-91962814D02*
X161838064Y-91843766D01*
X161838064Y-91843766D02*
X161823183Y-91724719D01*
X161823183Y-91724719D02*
X161748778Y-91605671D01*
X161748778Y-91605671D02*
X161681814Y-91546147D01*
X161681814Y-91546147D02*
X161555326Y-91486623D01*
X161555326Y-91486623D02*
X161257706Y-91486623D01*
X161257706Y-91486623D02*
X161086576Y-91546147D01*
X160521100Y-92736623D02*
X160632707Y-92677100D01*
X160632707Y-92677100D02*
X160684790Y-92617576D01*
X160684790Y-92617576D02*
X160729433Y-92498528D01*
X160729433Y-92498528D02*
X160684790Y-92141385D01*
X160684790Y-92141385D02*
X160610385Y-92022338D01*
X160610385Y-92022338D02*
X160543421Y-91962814D01*
X160543421Y-91962814D02*
X160416933Y-91903290D01*
X160416933Y-91903290D02*
X160238361Y-91903290D01*
X160238361Y-91903290D02*
X160126754Y-91962814D01*
X160126754Y-91962814D02*
X160074671Y-92022338D01*
X160074671Y-92022338D02*
X160030028Y-92141385D01*
X160030028Y-92141385D02*
X160074671Y-92498528D01*
X160074671Y-92498528D02*
X160149076Y-92617576D01*
X160149076Y-92617576D02*
X160216040Y-92677100D01*
X160216040Y-92677100D02*
X160342528Y-92736623D01*
X160342528Y-92736623D02*
X160521100Y-92736623D01*
X159568719Y-92736623D02*
X159412469Y-91486623D01*
X159471993Y-91962814D02*
X159345505Y-91903290D01*
X159345505Y-91903290D02*
X159107409Y-91903290D01*
X159107409Y-91903290D02*
X158995802Y-91962814D01*
X158995802Y-91962814D02*
X158943719Y-92022338D01*
X158943719Y-92022338D02*
X158899076Y-92141385D01*
X158899076Y-92141385D02*
X158943719Y-92498528D01*
X158943719Y-92498528D02*
X159018124Y-92617576D01*
X159018124Y-92617576D02*
X159085088Y-92677100D01*
X159085088Y-92677100D02*
X159211576Y-92736623D01*
X159211576Y-92736623D02*
X159449671Y-92736623D01*
X159449671Y-92736623D02*
X159561278Y-92677100D01*
X157954136Y-92677100D02*
X158080624Y-92736623D01*
X158080624Y-92736623D02*
X158318719Y-92736623D01*
X158318719Y-92736623D02*
X158430326Y-92677100D01*
X158430326Y-92677100D02*
X158474969Y-92558052D01*
X158474969Y-92558052D02*
X158415446Y-92081861D01*
X158415446Y-92081861D02*
X158341041Y-91962814D01*
X158341041Y-91962814D02*
X158214553Y-91903290D01*
X158214553Y-91903290D02*
X157976457Y-91903290D01*
X157976457Y-91903290D02*
X157864850Y-91962814D01*
X157864850Y-91962814D02*
X157820207Y-92081861D01*
X157820207Y-92081861D02*
X157835088Y-92200909D01*
X157835088Y-92200909D02*
X158445207Y-92319957D01*
X157440743Y-91903290D02*
X156964552Y-91903290D01*
X157210088Y-91486623D02*
X157344017Y-92558052D01*
X157344017Y-92558052D02*
X157299374Y-92677100D01*
X157299374Y-92677100D02*
X157187767Y-92736623D01*
X157187767Y-92736623D02*
X157068719Y-92736623D01*
X156704135Y-92677100D02*
X156592528Y-92736623D01*
X156592528Y-92736623D02*
X156354433Y-92736623D01*
X156354433Y-92736623D02*
X156227945Y-92677100D01*
X156227945Y-92677100D02*
X156153540Y-92558052D01*
X156153540Y-92558052D02*
X156146100Y-92498528D01*
X156146100Y-92498528D02*
X156190742Y-92379480D01*
X156190742Y-92379480D02*
X156302350Y-92319957D01*
X156302350Y-92319957D02*
X156480921Y-92319957D01*
X156480921Y-92319957D02*
X156592528Y-92260433D01*
X156592528Y-92260433D02*
X156637171Y-92141385D01*
X156637171Y-92141385D02*
X156629731Y-92081861D01*
X156629731Y-92081861D02*
X156555326Y-91962814D01*
X156555326Y-91962814D02*
X156428838Y-91903290D01*
X156428838Y-91903290D02*
X156250266Y-91903290D01*
X156250266Y-91903290D02*
X156138659Y-91962814D01*
X155640147Y-92736623D02*
X155483897Y-91486623D01*
X155461576Y-92260433D02*
X155163956Y-92736623D01*
X155059790Y-91903290D02*
X155595504Y-92379480D01*
X154628242Y-92736623D02*
X154524075Y-91903290D01*
X154471992Y-91486623D02*
X154538956Y-91546147D01*
X154538956Y-91546147D02*
X154486873Y-91605671D01*
X154486873Y-91605671D02*
X154419909Y-91546147D01*
X154419909Y-91546147D02*
X154471992Y-91486623D01*
X154471992Y-91486623D02*
X154486873Y-91605671D01*
X154047885Y-91903290D02*
X153854433Y-92736623D01*
X153452647Y-91903290D02*
X153854433Y-92736623D01*
X153854433Y-92736623D02*
X154010683Y-93034242D01*
X154010683Y-93034242D02*
X154077647Y-93093766D01*
X154077647Y-93093766D02*
X154204135Y-93153290D01*
D11*
X177300000Y-101200000D03*
X154300000Y-95500000D03*
X175000000Y-96500000D03*
X169700000Y-94600000D03*
X180400000Y-101200000D03*
X181600000Y-88300000D03*
X185300000Y-88300000D03*
X168800000Y-88400000D03*
X172700000Y-95900000D03*
X152300000Y-99700000D03*
X154300000Y-86700000D03*
X175330000Y-87850000D03*
X173500000Y-87800000D03*
X153600000Y-101500000D03*
X179600000Y-88200000D03*
X152100000Y-103100000D03*
X157400000Y-105300000D03*
X174440000Y-88620000D03*
X169300000Y-102500000D03*
X166100000Y-89900000D03*
X174900000Y-99100000D03*
X156400000Y-79600000D03*
X152300000Y-97200000D03*
X156900000Y-103300000D03*
X171900000Y-81500000D03*
X169800000Y-99200000D03*
X183700000Y-88400000D03*
X174100000Y-94600000D03*
X176900000Y-81600000D03*
X167900000Y-86500000D03*
X180800000Y-80000000D03*
X169700000Y-97000000D03*
X172050000Y-93540000D03*
X185500000Y-83900000D03*
X158700000Y-80900000D03*
X177500000Y-93600000D03*
D12*
X168785000Y-85143600D03*
X168785000Y-81343600D03*
X160145000Y-85143600D03*
X160145000Y-81343600D03*
D11*
X177825400Y-99314000D03*
X180365400Y-99314000D03*
X182905400Y-99314000D03*
X183388000Y-104622600D03*
X173888400Y-105900000D03*
X173888400Y-107551000D03*
X171348400Y-105900000D03*
X171348400Y-107551000D03*
X168808400Y-105900000D03*
X168808400Y-107551000D03*
X154432000Y-81788000D03*
D13*
X174920000Y-92480000D03*
X174420000Y-92480000D03*
X173920000Y-92480000D03*
X174920000Y-91980000D03*
X174420000Y-91980000D03*
X173920000Y-91980000D03*
X174920000Y-91480000D03*
X174420000Y-91480000D03*
X173920000Y-91480000D03*
X174920000Y-90980000D03*
X174420000Y-90980000D03*
X173920000Y-90980000D03*
X174920000Y-90480000D03*
X174420000Y-90480000D03*
X173920000Y-90480000D03*
D11*
X163080000Y-105920000D03*
X163080000Y-107571000D03*
X160540000Y-105920000D03*
X160540000Y-107571000D03*
X154432000Y-104622600D03*
X183388000Y-81788000D03*
M02*
